<!DOCTYPE svg PUBLIC "-//W3C//DTD SVG 20010904//EN" "http://www.w3.org/TR/2001/REC-SVG-20010904/DTD/svg10.dtd">
<svg version="1.0" xmlns="http://www.w3.org/2000/svg" width="555px" height="399px" viewBox="0 0 5550 3990" preserveAspectRatio="xMidYMid meet">
<g id="layer101" fill="#2a1d6e" stroke="none">
<path d="M0 1995 l0 -1995 2775 0 2775 0 0 1995 0 1995 -2775 0 -2775 0 0 -1995z"/>
</g>
<g id="layer102" fill="#372b77" stroke="none">
<path d="M2879 3982 c-1 -4 -1 -10 0 -14 0 -5 -5 -7 -11 -5 -7 1 -12 -4 -10 -10 1 -7 -4 -12 -10 -10 -7 1 -12 -4 -10 -12 2 -11 0 -12 -11 -3 -11 10 -17 9 -26 -1 -6 -8 -7 -18 -3 -22 4 -5 2 -5 -5 -2 -6 4 -18 2 -25 -5 -8 -7 -23 -18 -33 -25 -11 -6 -19 -16 -17 -22 1 -6 -4 -10 -10 -8 -7 1 -12 -4 -10 -10 1 -7 -4 -12 -10 -10 -7 1 -12 -3 -11 -8 1 -6 -8 -12 -19 -12 -26 -2 -70 -42 -61 -56 3 -6 1 -7 -5 -3 -6 3 -27 -9 -46 -29 -20 -19 -39 -36 -43 -38 -5 -1 -7 -5 -5 -10 1 -4 -4 -6 -10 -5 -7 2 -12 -3 -10 -10 1 -6 -4 -11 -10 -10 -7 2 -12 -3 -10 -10 1 -6 -4 -11 -10 -10 -7 2 -12 -3 -10 -10 1 -6 -4 -11 -10 -10 -7 2 -12 -3 -10 -10 1 -6 -4 -11 -10 -10 -7 2 -12 -3 -10 -10 1 -6 -4 -11 -10 -10 -7 2 -12 -3 -10 -10 1 -6 -4 -11 -10 -10 -7 2 -12 -3 -10 -10 1 -6 -4 -11 -10 -10 -7 2 -12 -3 -10 -10 1 -6 -4 -11 -10 -10 -7 2 -12 -3 -10 -10 1 -6 -4 -11 -10 -10 -7 2 -12 -3 -10 -10 1 -6 -4 -11 -10 -10 -7 2 -12 -3 -10 -9 1 -7 -4 -12 -10 -10 -7 1 -12 -4 -11 -10 2 -7 -3 -12 -10 -10 -6 1 -11 -4 -10 -10 2 -7 -3 -12 -10 -10 -6 1 -11 -4 -10 -10 2 -7 -3 -12 -10 -10 -6 1 -11 -4 -10 -10 2 -7 -3 -12 -10 -10 -6 1 -11 -4 -10 -10 2 -7 -3 -12 -10 -10 -6 1 -11 -4 -10 -10 2 -7 -3 -12 -10 -10 -6 1 -11 -4 -10 -10 2 -7 -3 -12 -10 -10 -6 1 -11 -4 -10 -10 2 -7 -3 -12 -10 -10 -6 1 -11 -4 -10 -10 2 -7 -3 -12 -10 -10 -6 1 -11 -4 -10 -10 2 -7 -3 -12 -10 -10 -6 1 -11 -4 -10 -10 2 -7 -3 -12 -10 -10 -6 1 -11 -3 -10 -10 2 -6 -6 -15 -17 -18 -11 -4 -20 -11 -20 -16 0 -6 -7 -17 -15 -26 -8 -8 -13 -19 -9 -24 3 -5 0 -8 -7 -7 -7 2 -13 -3 -14 -9 0 -7 -4 -14 -10 -15 -5 -2 -11 18 -13 45 -3 39 -6 47 -23 47 -17 0 -19 -7 -19 -79 0 -44 -5 -83 -10 -86 -6 -4 -8 -11 -4 -16 3 -5 0 -8 -6 -7 -7 2 -17 -6 -23 -17 -7 -10 -18 -25 -25 -33 -7 -7 -9 -19 -5 -25 3 -7 3 -9 -2 -5 -4 4 -14 3 -22 -3 -11 -10 -11 -15 -1 -27 9 -11 9 -14 1 -9 -22 13 -80 -61 -74 -96 0 -4 -4 -6 -10 -5 -6 2 -16 -6 -22 -17 -7 -10 -18 -25 -25 -33 -7 -7 -10 -17 -7 -21 2 -5 -30 -9 -73 -10 -42 -1 -77 -3 -79 -4 -1 -1 -3 -59 -4 -129 -2 -84 -6 -126 -13 -125 -6 1 -10 -4 -8 -11 1 -8 -2 -11 -8 -7 -9 5 -15 -15 -11 -38 1 -5 -3 -6 -9 -2 -5 3 -7 24 -4 48 11 79 -21 125 -98 141 -27 6 -28 9 -28 71 l0 65 -30 0 -30 0 0 -195 0 -195 45 0 c54 0 109 21 123 47 10 17 11 16 9 -4 0 -12 -4 -21 -7 -20 -3 1 -6 -2 -7 -6 -1 -4 -9 -14 -17 -22 -8 -9 -13 -24 -11 -35 2 -11 -1 -19 -7 -17 -17 4 -47 -56 -35 -71 8 -10 7 -12 -3 -10 -19 5 -50 -54 -37 -70 8 -10 7 -12 -3 -10 -20 5 -50 -54 -36 -71 8 -11 8 -13 0 -8 -17 10 -36 -18 -38 -52 0 -16 -3 -29 -6 -28 -3 1 -6 -2 -7 -7 -1 -5 -6 -12 -13 -16 -6 -4 -12 -13 -14 -21 -1 -8 -10 -31 -21 -53 -10 -21 -18 -44 -18 -52 0 -8 -4 -14 -9 -14 -4 0 -8 -5 -8 -11 0 -5 6 -7 13 -3 6 4 2 -4 -10 -17 -12 -14 -24 -34 -26 -44 -1 -11 -10 -34 -19 -52 -12 -23 -13 -34 -4 -43 8 -9 7 -11 -4 -8 -8 2 -14 -2 -15 -9 0 -6 -3 -15 -7 -19 -4 -4 -3 -13 4 -21 6 -8 7 -13 2 -11 -5 2 -10 -1 -11 -6 -1 -5 -6 -12 -12 -15 -6 -4 -12 -19 -13 -34 -1 -15 -6 -27 -10 -27 -4 0 -8 -5 -8 -11 0 -5 4 -8 8 -5 5 3 9 -1 9 -9 0 -8 -3 -13 -6 -12 -3 1 -7 -2 -8 -7 -1 -5 -6 -12 -11 -15 -6 -4 -12 -18 -14 -33 -2 -15 -7 -30 -11 -34 -4 -4 -2 -13 5 -21 9 -11 8 -13 -2 -11 -8 2 -15 -6 -15 -17 -1 -11 -5 -28 -9 -37 -4 -9 -9 -22 -10 -30 -2 -7 -8 -24 -13 -38 -6 -14 -9 -32 -8 -40 1 -8 -2 -18 -7 -21 -4 -3 -10 -21 -12 -40 -2 -19 -7 -43 -11 -53 -5 -10 -9 -29 -9 -42 -1 -13 -5 -26 -9 -30 -4 -4 -1 -14 6 -22 9 -13 9 -14 0 -8 -13 7 -16 -3 -16 -46 0 -10 -4 -18 -8 -18 -5 0 -9 -5 -9 -11 0 -5 4 -8 8 -5 5 3 9 -1 9 -9 0 -8 -4 -12 -9 -9 -8 5 -11 -9 -11 -48 0 -10 -4 -18 -8 -18 -5 0 -9 -5 -9 -11 0 -5 4 -8 8 -5 5 3 9 -1 9 -9 0 -8 -4 -12 -9 -9 -8 5 -9 -1 -12 -55 0 -16 -4 -33 -9 -37 -10 -10 -9 -36 1 -30 5 3 9 -1 9 -9 0 -8 -4 -12 -9 -9 -4 3 -9 -2 -9 -10 -1 -9 -2 -28 -4 -43 -1 -16 -5 -35 -9 -45 -4 -9 -8 -50 -9 -92 -1 -42 -5 -76 -9 -76 -5 0 -8 -5 -8 -11 0 -5 4 -8 8 -5 5 3 9 -1 9 -9 0 -8 -4 -12 -9 -9 -4 3 -8 -2 -8 -11 0 -9 4 -14 8 -11 5 3 9 -1 9 -9 0 -8 -4 -12 -9 -9 -4 3 -8 -2 -8 -11 0 -9 4 -14 8 -11 5 3 9 -1 9 -9 0 -8 -5 -13 -11 -12 -7 1 -10 -31 -10 -90 0 -51 -4 -93 -8 -93 -5 0 -8 -4 -8 -10 0 -6 818 -10 2395 -10 l2395 0 0 1995 0 1995 -1335 0 c-734 0 -1336 -4 -1336 -8z m-239 -196 c0 -2 -8 -10 -17 -17 -16 -13 -17 -12 -4 4 13 16 21 21 21 13z m-880 -940 c0 -2 -8 -10 -17 -17 -16 -13 -17 -12 -4 4 13 16 21 21 21 13z m-172 -230 c-7 -8 -15 -12 -17 -11 -5 6 10 25 20 25 5 0 4 -6 -3 -14z m-238 -106 c27 -14 35 -65 16 -95 -30 -46 -46 -32 -46 40 0 69 1 71 30 55z m-390 -1344 c0 -3 -5 -8 -12 -12 -7 -4 -8 -3 -4 4 7 12 16 16 16 8z m-43 -171 c0 -8 -4 -12 -9 -9 -5 3 -6 10 -3 15 9 13 12 11 12 -6z m-37 -189 c0 -3 -5 -8 -12 -12 -7 -4 -8 -3 -4 4 7 12 16 16 16 8z m-40 -240 c0 -3 -5 -8 -12 -12 -7 -4 -8 -3 -4 4 7 12 16 16 16 8z m-40 -380 c0 -3 -5 -8 -12 -12 -7 -4 -8 -3 -4 4 7 12 16 16 16 8z"/>
</g>
<g id="layer103" fill="#3b3583" stroke="none">
<path d="M5486 3233 c-4 -5 -21 -9 -37 -9 -54 -3 -60 -4 -55 -12 3 -5 -1 -9 -9 -9 -8 0 -12 4 -9 9 6 10 -20 11 -30 1 -4 -5 -21 -9 -37 -9 -57 -3 -60 -4 -53 -16 6 -10 5 -10 -8 -1 -8 7 -18 9 -22 5 -4 -4 -16 -8 -27 -8 -48 -3 -50 -4 -43 -16 6 -10 4 -10 -8 0 -9 7 -19 9 -21 5 -3 -5 -20 -10 -38 -11 -17 -1 -37 -6 -43 -10 -12 -7 -18 -9 -42 -11 -9 -1 -12 -6 -8 -13 6 -10 5 -10 -8 -1 -8 7 -18 10 -22 6 -4 -4 -19 -9 -34 -11 -15 -2 -29 -8 -33 -14 -3 -5 -10 -10 -15 -11 -5 -1 -8 -5 -7 -8 1 -3 -4 -6 -12 -6 -8 0 -12 4 -9 9 3 4 0 8 -5 8 -6 0 -11 -4 -11 -8 0 -4 -12 -9 -27 -10 -15 -1 -30 -7 -34 -13 -3 -6 -10 -11 -15 -12 -5 -1 -8 -5 -7 -8 1 -3 -4 -6 -12 -6 -8 0 -12 4 -9 9 3 4 0 8 -5 8 -6 0 -11 -4 -11 -8 0 -4 -10 -8 -21 -9 -12 -1 -27 -7 -33 -14 -8 -8 -8 -10 0 -6 6 3 11 0 11 -7 0 -7 -6 -13 -13 -13 -7 0 -12 3 -11 6 1 3 -2 6 -8 6 -5 0 -9 -3 -8 -7 2 -4 -5 -5 -15 -4 -9 2 -28 -1 -42 -7 -14 -5 -31 -11 -39 -13 -8 -1 -17 -8 -21 -14 -4 -7 -11 -12 -16 -13 -5 -1 -8 -5 -7 -9 2 -4 -6 -5 -16 -3 -20 4 -230 -97 -241 -116 -4 -6 -11 -11 -16 -12 -5 -1 -8 -5 -7 -9 2 -4 -6 -5 -17 -3 -11 2 -26 -2 -33 -8 -7 -7 -22 -17 -32 -24 -11 -6 -19 -16 -18 -21 2 -6 -6 -9 -17 -7 -10 2 -25 -4 -32 -13 -11 -13 -11 -15 2 -7 9 5 12 4 7 -1 -9 -10 -13 -10 -121 -12 l-78 -2 7 -27 c13 -47 14 -82 1 -80 -6 1 -10 -3 -9 -8 1 -6 -9 -12 -23 -13 -23 -2 -24 1 -24 63 l0 65 -40 0 -40 0 0 -99 c0 -57 -4 -103 -10 -106 -6 -4 -8 -11 -4 -16 3 -5 0 -8 -8 -7 -7 2 -12 -4 -10 -12 2 -10 0 -12 -6 -5 -5 6 -12 48 -14 95 -5 93 -18 123 -60 141 -38 16 -106 5 -132 -20 -23 -23 -34 -104 -35 -248 -1 -94 4 -113 30 -113 10 0 19 -4 19 -10 0 -5 -4 -10 -10 -10 -5 0 -10 -5 -10 -11 0 -5 4 -8 8 -5 5 3 9 -1 9 -8 0 -7 -6 -13 -13 -13 -7 0 -11 4 -8 9 8 13 -6 9 -22 -6 -15 -16 -19 -30 -6 -22 5 3 9 -1 9 -8 0 -7 -6 -13 -13 -13 -7 0 -11 4 -8 9 8 13 -6 9 -22 -6 -15 -16 -19 -30 -6 -22 5 3 9 -1 9 -8 0 -7 -6 -13 -13 -13 -7 0 -11 4 -8 9 14 22 -9 3 -59 -49 -43 -44 -53 -61 -45 -71 9 -10 8 -12 -3 -10 -8 2 -13 -3 -11 -10 1 -6 -4 -11 -10 -10 -7 2 -12 -3 -10 -10 1 -6 -4 -11 -10 -10 -7 2 -12 -3 -10 -10 1 -6 -4 -11 -10 -10 -7 2 -12 -3 -10 -10 1 -6 -3 -11 -9 -10 -6 2 -16 -6 -22 -17 -7 -10 -24 -33 -39 -49 -21 -23 -24 -33 -16 -44 9 -10 8 -12 -3 -10 -8 2 -13 -3 -11 -10 1 -6 -4 -11 -10 -10 -7 2 -12 -3 -10 -10 1 -6 -3 -11 -9 -10 -6 2 -16 -6 -22 -17 -7 -10 -18 -25 -24 -33 -17 -18 -17 -27 0 -13 10 8 14 7 14 -3 0 -20 -36 -13 -104 19 l-62 30 0 48 c-1 39 -6 53 -28 73 -33 31 -61 38 -123 32 -56 -6 -166 -56 -196 -89 -18 -22 -18 -22 0 -15 16 5 17 4 7 -8 -11 -13 -15 -13 -33 4 -75 70 -144 59 -193 -30 -28 -51 -30 -62 -30 -161 l0 -107 -31 -11 c-43 -16 -69 -66 -60 -117 6 -30 22 -53 69 -99 34 -33 74 -66 90 -72 80 -37 77 -34 77 -80 0 -55 12 -78 50 -98 34 -18 80 -19 134 -4 63 17 73 18 73 4 0 -8 -4 -12 -8 -10 -9 6 -28 -17 -32 -41 -2 -10 -7 -27 -11 -36 -4 -9 -9 -22 -10 -30 -2 -7 -6 -21 -10 -30 -4 -9 -9 -22 -10 -30 -2 -7 -6 -21 -10 -30 -4 -9 -9 -22 -10 -30 -2 -7 -6 -21 -10 -30 -4 -9 -9 -23 -10 -32 -1 -8 -5 -19 -9 -22 -10 -10 -9 -36 1 -30 5 3 9 -1 9 -9 0 -8 -5 -13 -11 -12 -5 1 -10 -3 -11 -10 0 -6 -3 -15 -7 -19 -4 -4 -2 -14 5 -22 9 -13 9 -14 0 -8 -8 4 -13 1 -14 -8 -3 -29 -4 -34 -11 -42 -11 -10 -10 -36 0 -30 5 3 9 -1 9 -9 0 -8 -5 -13 -11 -12 -5 1 -11 -7 -11 -18 -1 -11 -5 -28 -9 -37 -4 -10 -9 -38 -9 -63 -1 -25 -5 -45 -9 -45 -5 0 -8 -5 -8 -11 0 -5 6 -7 13 -3 9 6 9 5 0 -7 -10 -12 -10 -18 0 -29 9 -10 9 -11 0 -6 -13 7 -14 3 -17 -53 0 -16 -4 -33 -8 -37 -11 -10 -10 -36 0 -30 5 3 9 -1 9 -9 0 -8 -4 -12 -9 -9 -9 5 -10 -6 -12 -113 l-1 -68 1538 -3 1537 -2 0 1620 c0 1133 -3 1620 -11 1620 -5 0 -8 -4 -5 -8 3 -5 -1 -9 -9 -9 -8 0 -12 4 -9 9 6 10 -20 11 -30 1z m-52 -21 c3 -5 -1 -9 -9 -9 -8 0 -12 4 -9 9 3 4 7 8 9 8 2 0 6 -4 9 -8z m40 0 c3 -5 -1 -9 -9 -9 -8 0 -12 4 -9 9 3 4 7 8 9 8 2 0 6 -4 9 -8z m-280 -40 c3 -5 -1 -9 -9 -9 -8 0 -12 4 -9 9 3 4 7 8 9 8 2 0 6 -4 9 -8z m-160 -40 c3 -5 -1 -9 -9 -9 -8 0 -12 4 -9 9 3 4 7 8 9 8 2 0 6 -4 9 -8z m-480 -160 c3 -5 -1 -9 -9 -9 -8 0 -12 4 -9 9 3 4 7 8 9 8 2 0 6 -4 9 -8z m-80 -40 c3 -5 -1 -9 -9 -9 -8 0 -12 4 -9 9 3 4 7 8 9 8 2 0 6 -4 9 -8z m-77 -35 c0 -8 -6 -14 -14 -14 -9 0 -10 4 -2 14 6 7 12 13 14 13 1 0 2 -6 2 -13z m-40 -20 c0 -8 -6 -14 -14 -14 -9 0 -10 4 -2 14 6 7 12 13 14 13 1 0 2 -6 2 -13z m-80 -40 c0 -8 -6 -14 -14 -14 -9 0 -10 4 -2 14 6 7 12 13 14 13 1 0 2 -6 2 -13z m-83 -45 c3 -5 -1 -9 -9 -9 -8 0 -12 4 -9 9 3 4 7 8 9 8 2 0 6 -4 9 -8z m-574 -197 c13 -41 11 -203 -3 -212 -6 -3 -7 -1 -3 5 13 21 0 13 -25 -15 -13 -15 -17 -22 -8 -15 12 9 16 9 16 -1 0 -7 -11 -13 -24 -13 -23 0 -23 0 -23 132 0 106 3 136 15 148 22 21 42 10 55 -29z m-63 -278 c0 -8 -6 -14 -14 -14 -9 0 -10 4 -2 14 6 7 12 13 14 13 1 0 2 -6 2 -13z m-160 -160 c0 -8 -6 -14 -14 -14 -9 0 -10 4 -2 14 6 7 12 13 14 13 1 0 2 -6 2 -13z m-40 -40 c0 -8 -6 -14 -14 -14 -9 0 -10 4 -2 14 6 7 12 13 14 13 1 0 2 -6 2 -13z m-160 -200 c0 -8 -6 -14 -14 -14 -9 0 -10 4 -2 14 6 7 12 13 14 13 1 0 2 -6 2 -13z m-359 -20 c6 -5 12 -20 12 -33 0 -21 -3 -24 -27 -18 -16 4 -36 11 -46 16 -10 5 -50 10 -87 11 -62 2 -66 3 -45 14 51 27 164 33 193 10z m-362 -71 c3 -9 -11 -30 -37 -53 -23 -21 -55 -58 -71 -82 -15 -25 -28 -38 -28 -30 1 34 20 92 44 134 22 37 32 45 57 45 16 0 32 -6 35 -14z m317 -1 c26 -4 47 -10 45 -14 -15 -31 -60 -83 -101 -117 l-51 -42 -28 21 c-32 24 -71 97 -63 119 15 38 88 50 198 33z m-274 -73 c10 -21 25 -66 31 -100 12 -58 11 -64 -6 -77 -23 -18 -125 -20 -142 -3 -29 29 -2 113 59 183 17 19 33 35 35 35 2 0 12 -17 23 -38z m497 -55 c3 -24 2 -22 -36 26 l-34 42 33 -26 c19 -14 35 -33 37 -42z m-80 0 c25 -23 37 -43 39 -65 1 -18 0 -31 -3 -28 -8 9 -32 -15 -32 -31 0 -8 4 -12 8 -9 5 3 9 -1 9 -8 0 -7 -6 -13 -13 -13 -7 0 -11 4 -8 9 3 4 0 8 -5 8 -6 0 -11 -4 -11 -10 0 -5 -26 0 -59 12 -58 21 -58 21 -51 53 12 51 51 115 72 115 10 0 34 -15 54 -33z m-599 -119 c-2 -13 -4 -3 -4 22 0 25 2 35 4 23 2 -13 2 -33 0 -45z m367 -34 c23 -9 20 -51 -4 -64 -28 -15 -62 7 -54 35 10 31 29 40 58 29z m-378 -81 c17 -80 41 -140 68 -172 l31 -35 -31 22 c-60 41 -124 131 -124 171 0 12 28 41 41 41 5 0 11 -12 15 -27z m161 6 c32 -12 62 -25 66 -29 22 -20 -41 -150 -73 -150 -33 0 -130 139 -130 188 0 19 72 15 137 -9z m389 -32 c1 -9 -1 -15 -6 -12 -13 8 -32 -23 -34 -54 0 -16 -4 -27 -9 -24 -4 2 -5 9 -2 14 4 5 1 9 -4 9 -6 0 -11 16 -11 35 0 28 5 38 23 45 29 11 40 8 43 -13z m-120 -145 c20 -43 8 -77 -33 -93 -27 -11 -164 -6 -184 6 -14 9 41 83 93 125 l50 39 28 -21 c16 -12 37 -37 46 -56z m-182 -127 c27 -8 71 -15 98 -15 26 0 48 -4 48 -10 0 -13 -66 -30 -118 -30 -56 0 -82 14 -82 45 0 14 1 25 3 25 1 0 24 -7 51 -15z m103 -210 c0 -8 -4 -12 -9 -9 -5 3 -6 10 -3 15 9 13 12 11 12 -6z m-40 -120 c0 -8 -4 -12 -9 -9 -5 3 -6 10 -3 15 9 13 12 11 12 -6z m-40 -158 c0 -8 -6 -14 -14 -14 -9 0 -10 4 -2 14 6 7 12 13 14 13 1 0 2 -6 2 -13z m-40 -162 c0 -8 -4 -12 -9 -9 -5 3 -6 10 -3 15 9 13 12 11 12 -6z m-40 -220 c0 -8 -4 -12 -9 -9 -5 3 -6 10 -3 15 9 13 12 11 12 -6z m0 -40 c0 -8 -4 -12 -9 -9 -5 3 -6 10 -3 15 9 13 12 11 12 -6z"/>
<path d="M1890 3070 l0 -120 35 0 c38 0 47 14 15 23 -16 4 -20 14 -20 46 0 30 4 41 15 41 8 0 15 7 15 15 0 8 -7 15 -15 15 -11 0 -15 12 -15 50 0 38 -4 50 -15 50 -12 0 -15 -20 -15 -120z"/>
<path d="M2080 3070 c0 -109 2 -120 18 -120 13 0 22 15 34 58 l16 57 1 -57 c1 -45 5 -58 16 -58 13 0 15 20 15 120 0 93 -3 120 -13 120 -8 0 -21 -21 -29 -47 l-16 -48 -1 48 c-1 40 -4 47 -21 47 -19 0 -20 -7 -20 -120z"/>
<path d="M2237 3183 c-4 -3 -7 -57 -7 -120 l0 -113 34 0 c55 0 61 14 60 124 -1 71 -6 101 -15 107 -17 10 -63 12 -72 2z m53 -118 c0 -50 -4 -85 -10 -85 -6 0 -10 35 -10 85 0 50 4 85 10 85 6 0 10 -35 10 -85z"/>
<path d="M2490 3143 c0 -27 -9 -81 -19 -120 -18 -70 -18 -73 -1 -73 19 0 30 19 30 52 0 22 14 17 16 -5 0 -7 2 -20 2 -29 1 -11 10 -18 23 -18 17 0 19 4 13 23 -22 69 -34 127 -34 170 0 35 -4 47 -15 47 -11 0 -15 -12 -15 -47z"/>
<path d="M2601 3168 c-9 -27 -7 -175 4 -200 11 -26 44 -32 66 -12 16 14 19 31 19 106 0 49 -5 98 -10 109 -16 28 -68 26 -79 -3z m49 -104 c0 -61 -4 -93 -10 -89 -11 7 -14 168 -3 178 12 13 13 7 13 -89z"/>
<path d="M2746 3174 c-3 -9 -6 -63 -6 -120 0 -86 3 -104 15 -104 12 0 15 18 15 105 0 63 4 105 10 105 6 0 10 -42 10 -105 0 -98 1 -105 20 -105 19 0 20 7 20 108 0 71 -4 112 -12 120 -17 17 -65 15 -72 -4z"/>
<path d="M2880 3070 l0 -120 40 0 c24 0 42 5 44 13 3 6 7 60 10 120 5 100 5 107 -13 107 -15 0 -19 -8 -19 -47 -2 -70 -22 -80 -22 -10 0 50 -2 57 -20 57 -19 0 -20 -7 -20 -120z m60 -61 c0 -16 -4 -29 -10 -29 -5 0 -10 16 -10 36 0 21 4 33 10 29 6 -3 10 -19 10 -36z"/>
<path d="M3026 3175 c-3 -9 -6 -28 -6 -42 0 -30 20 -26 37 8 12 22 13 22 14 4 2 -36 -3 -49 -27 -72 -19 -17 -24 -32 -24 -68 0 -38 4 -47 24 -56 32 -15 66 4 66 36 0 18 -5 25 -20 25 -12 0 -20 -7 -20 -17 0 -15 -2 -16 -10 -3 -14 22 -13 28 17 58 23 23 28 36 28 82 l0 55 -36 3 c-26 2 -38 -1 -43 -13z"/>
<path d="M3160 3070 l0 -120 35 0 c24 0 35 5 35 15 0 8 -9 15 -20 15 -16 0 -20 7 -20 34 0 25 5 35 20 39 11 3 20 10 20 16 0 6 -9 11 -20 11 -16 0 -20 7 -20 35 0 28 4 35 20 35 13 0 20 7 20 20 0 16 -7 20 -35 20 l-35 0 0 -120z"/>
<path d="M3270 3070 c0 -99 3 -120 15 -120 11 0 15 20 17 103 3 99 4 102 26 100 16 -2 22 2 22 17 0 17 -7 20 -40 20 l-40 0 0 -120z"/>
<path d="M3380 3070 l0 -120 35 0 c24 0 35 5 35 15 0 8 -7 15 -15 15 -11 0 -15 11 -15 40 0 29 4 40 15 40 8 0 15 7 15 15 0 8 -7 15 -15 15 -11 0 -15 12 -15 50 0 43 -3 50 -20 50 -19 0 -20 -7 -20 -120z"/>
<path d="M1262 2518 l3 -193 52 0 c67 1 98 19 117 67 38 93 4 163 -86 182 -27 6 -28 9 -28 71 l0 65 -30 0 -30 0 2 -192z m98 -18 c24 -24 26 -57 4 -88 -29 -42 -44 -28 -44 43 0 69 7 78 40 45z"/>
<path d="M1724 2697 c-2 -7 -3 -94 -2 -192 l3 -180 40 -3 c89 -8 155 40 155 111 0 31 -21 77 -44 96 -13 11 -11 22 24 91 21 43 36 80 33 84 -4 3 -20 6 -37 6 -29 0 -35 -6 -68 -72 l-37 -73 0 73 -1 72 -30 0 c-17 0 -33 -6 -36 -13z m108 -214 c22 -20 23 -56 2 -78 -26 -25 -39 -12 -42 43 -3 56 7 65 40 35z"/>
<path d="M2006 2697 c-13 -9 -16 -20 -11 -40 8 -31 8 -31 51 -15 26 9 36 9 48 -1 28 -23 18 -55 -30 -101 -60 -58 -76 -95 -63 -144 17 -60 98 -96 143 -63 14 10 15 18 7 40 -9 23 -14 26 -42 20 -30 -6 -48 6 -49 32 0 6 27 38 60 73 55 57 60 65 60 108 0 37 -5 51 -29 75 -25 24 -38 29 -78 29 -27 0 -57 -6 -67 -13z"/>
<path d="M2320 2692 c-53 -28 -80 -89 -80 -180 0 -96 24 -146 83 -173 53 -24 61 -24 113 2 64 30 88 86 82 188 -5 91 -30 140 -82 165 -44 21 -73 20 -116 -2z m99 -69 c49 -40 47 -177 -4 -220 -34 -29 -41 -29 -75 5 -20 20 -29 42 -34 78 -15 113 48 189 113 137z"/>
<path d="M2582 2518 l3 -193 28 0 c27 0 31 6 70 103 l42 103 3 -106 3 -106 32 3 32 3 0 190 0 190 -27 3 c-23 3 -30 -3 -51 -45 -13 -26 -33 -70 -43 -98 l-19 -50 -5 95 -5 95 -33 3 -32 3 2 -193z"/>
<path d="M2853 2688 c3 -13 22 -101 43 -196 l37 -173 36 3 35 3 38 180 c21 99 36 185 33 192 -2 7 -16 13 -30 13 -20 0 -29 -7 -36 -30 -9 -25 -16 -30 -44 -30 -28 0 -33 4 -38 30 -6 27 -10 30 -43 30 -32 0 -36 -2 -31 -22z m126 -130 c0 -13 -4 -32 -9 -43 l-9 -20 0 20 c-1 11 -4 30 -7 43 -5 16 -2 22 10 22 10 0 16 -8 15 -22z"/>
<path d="M1504 2687 c-2 -7 -3 -91 -2 -187 l3 -175 83 -3 82 -3 0 36 c0 35 0 35 -44 35 -39 0 -45 3 -50 26 -9 34 0 42 49 46 37 3 40 5 40 33 0 28 -3 30 -41 33 -45 3 -54 16 -54 74 0 25 3 27 48 30 45 3 47 4 50 36 l3 32 -81 0 c-56 0 -82 -4 -86 -13z"/>
</g>
<g id="layer104" fill="#443880" stroke="none">
<path d="M5519 3101 c-1 -3 -1 -9 -1 -12 1 -3 -5 -6 -13 -6 -8 0 -12 4 -9 9 3 4 -2 8 -11 8 -9 0 -14 -4 -11 -8 3 -5 -1 -9 -9 -9 -8 0 -12 4 -9 9 3 4 0 8 -5 8 -6 0 -11 -4 -11 -8 0 -5 -12 -9 -27 -9 -73 -1 -84 -3 -77 -15 6 -10 5 -10 -8 -1 -8 7 -18 9 -22 5 -4 -4 -16 -8 -27 -8 -48 -3 -50 -4 -43 -16 6 -10 5 -10 -8 -1 -8 7 -18 10 -22 6 -4 -4 -17 -8 -30 -9 -13 0 -32 -4 -42 -9 -10 -5 -28 -9 -39 -10 -11 0 -19 -6 -18 -11 1 -6 -4 -11 -12 -11 -8 0 -12 4 -9 9 3 4 0 8 -5 8 -6 0 -11 -4 -11 -9 0 -6 -8 -8 -17 -7 -10 2 -29 -1 -43 -7 -14 -5 -31 -11 -38 -13 -8 -1 -21 -6 -30 -10 -9 -4 -23 -8 -30 -10 -8 -1 -21 -6 -30 -10 -9 -4 -23 -8 -30 -10 -8 -1 -21 -6 -30 -10 -9 -4 -23 -8 -30 -10 -8 -1 -21 -6 -30 -10 -9 -4 -23 -8 -31 -10 -8 -1 -17 -8 -21 -14 -4 -7 -10 -11 -14 -10 -4 1 -17 -1 -29 -5 -12 -4 -28 -9 -36 -10 -8 -2 -17 -9 -21 -15 -4 -7 -11 -12 -16 -13 -5 -1 -8 -6 -6 -11 2 -5 -3 -5 -10 1 -16 13 -75 -18 -70 -37 2 -10 0 -11 -10 -3 -16 13 -75 -18 -70 -37 2 -10 0 -11 -10 -3 -16 13 -75 -18 -70 -37 2 -10 0 -11 -11 -2 -11 9 -19 7 -38 -11 -13 -12 -26 -22 -29 -22 -3 0 -4 -3 -3 -7 2 -5 0 -7 -5 -7 -21 4 -40 -3 -58 -19 -10 -10 -23 -20 -29 -23 -5 -2 -9 -7 -8 -11 2 -5 -3 -7 -10 -5 -6 1 -11 -4 -9 -12 2 -11 0 -12 -11 -3 -10 9 -18 8 -33 -6 -11 -9 -30 -23 -42 -30 -20 -11 -23 -10 -32 13 -28 73 -27 75 29 75 l51 0 0 35 0 35 -100 0 c-57 0 -100 -4 -100 -10 0 -5 16 -53 35 -106 l34 -97 -29 -29 c-17 -15 -33 -29 -37 -31 -5 -1 -7 -5 -5 -10 1 -4 -4 -6 -10 -5 -7 2 -12 -2 -11 -8 1 -6 -5 -11 -13 -11 -12 0 -14 27 -14 154 l0 153 -40 0 -41 0 3 -194 c2 -107 0 -192 -4 -190 -4 3 -27 -15 -51 -38 -24 -24 -52 -48 -63 -55 -10 -6 -18 -16 -16 -22 1 -6 -4 -10 -10 -9 -7 2 -12 -3 -10 -10 1 -6 -4 -11 -10 -10 -7 2 -12 -3 -10 -10 1 -6 -4 -11 -10 -10 -7 2 -12 -3 -10 -10 1 -6 -4 -11 -10 -10 -7 2 -12 -3 -10 -10 1 -6 -4 -11 -10 -10 -7 2 -12 -3 -10 -10 1 -6 -3 -11 -9 -10 -6 2 -16 -6 -22 -16 -7 -10 -42 -51 -79 -89 -53 -56 -65 -74 -56 -85 9 -10 8 -12 -3 -10 -8 2 -13 -3 -11 -10 1 -6 -4 -11 -10 -10 -7 2 -12 -3 -10 -10 1 -6 -4 -11 -10 -10 -7 2 -12 -3 -10 -10 1 -6 -1 -11 -5 -10 -5 2 -9 -1 -10 -5 -1 -5 -10 -16 -20 -25 -10 -10 -27 -28 -38 -42 l-20 -25 20 14 c11 8 8 2 -8 -13 -15 -15 -25 -32 -21 -37 3 -5 0 -8 -7 -7 -7 2 -18 -7 -24 -19 -5 -13 -13 -23 -17 -23 -5 0 -8 -5 -8 -11 0 -5 6 -7 13 -3 8 5 8 2 -2 -9 -14 -17 -26 -24 -17 -9 3 5 -18 31 -47 59 -64 63 -207 146 -167 98 11 -13 10 -14 -3 -9 -11 4 -14 14 -10 39 20 125 -71 177 -214 121 -33 -13 -78 -36 -99 -51 -42 -29 -31 -29 61 5 66 24 157 29 180 10 15 -13 21 -60 8 -60 -5 0 -30 7 -57 15 -70 21 -164 19 -201 -4 l-31 -18 -34 28 c-50 42 -102 40 -144 -5 -18 -18 -38 -52 -44 -74 -18 -59 -25 -162 -13 -197 9 -28 9 -26 10 21 1 65 26 149 58 197 20 28 32 37 55 37 46 0 44 -24 -6 -70 -54 -50 -96 -130 -96 -182 0 -30 -4 -38 -17 -38 -30 0 -83 -38 -94 -68 -23 -59 29 -146 126 -207 82 -53 107 -53 40 -1 -102 79 -150 166 -112 203 24 24 43 9 51 -39 10 -65 53 -146 95 -176 35 -26 36 -29 33 -77 -6 -97 60 -138 176 -109 65 16 77 22 145 63 25 16 34 26 27 31 -7 5 -8 10 -3 13 15 10 54 -37 50 -59 -2 -10 -9 -30 -14 -44 -6 -14 -9 -33 -7 -42 1 -10 0 -17 -4 -15 -4 1 -9 -2 -11 -8 -3 -5 -10 -21 -17 -34 -7 -14 -11 -28 -8 -33 3 -4 0 -8 -5 -8 -6 0 -11 -5 -11 -11 0 -5 4 -8 8 -5 5 3 9 -1 9 -9 0 -8 -3 -13 -6 -12 -3 1 -7 -2 -8 -7 -1 -5 -6 -12 -12 -15 -6 -4 -12 -19 -13 -34 -1 -15 -6 -27 -10 -27 -4 0 -8 -5 -8 -11 0 -5 4 -8 8 -5 5 3 9 -1 9 -9 0 -8 -5 -13 -11 -12 -5 1 -10 -3 -11 -10 0 -6 -3 -15 -7 -19 -4 -4 -3 -13 4 -21 9 -11 8 -13 -2 -11 -8 2 -15 -6 -15 -17 -1 -11 -6 -31 -12 -45 -6 -14 -9 -32 -8 -40 1 -8 -2 -18 -7 -21 -4 -3 -10 -22 -11 -42 -2 -20 -6 -40 -10 -43 -10 -10 -9 -36 1 -30 5 3 9 -1 9 -9 0 -8 -5 -13 -11 -12 -5 1 -11 -7 -11 -18 -1 -11 -5 -27 -8 -35 -4 -8 -8 -41 -10 -73 -1 -31 -5 -57 -9 -57 -5 0 -8 -5 -8 -11 0 -5 4 -8 8 -5 5 3 9 -1 9 -9 0 -8 -4 -12 -9 -9 -4 3 -8 -2 -8 -11 0 -9 4 -14 8 -11 5 3 9 -1 9 -9 0 -8 -5 -13 -11 -12 -6 1 -10 -20 -11 -50 0 -28 -3 -55 -7 -59 -4 -4 -2 -14 5 -22 9 -13 9 -14 0 -8 -8 4 -13 1 -13 -9 0 -9 4 -14 8 -11 5 3 9 -1 9 -9 0 -8 -4 -12 -9 -9 -4 3 -8 -2 -8 -10 0 -14 151 -16 1475 -16 l1475 0 0 1546 c0 1233 -3 1544 -12 1538 -10 -6 -10 -5 -1 7 10 13 10 16 -2 16 -8 0 -16 -3 -16 -6z m-249 -45 c0 -3 -5 -8 -12 -12 -7 -4 -8 -3 -4 4 7 12 16 16 16 8z m-320 -80 c0 -3 -5 -8 -12 -12 -7 -4 -8 -3 -4 4 7 12 16 16 16 8z m-236 -84 c3 -5 -1 -9 -9 -9 -8 0 -12 4 -9 9 3 4 7 8 9 8 2 0 6 -4 9 -8z m-1314 -926 c0 -2 -8 -10 -17 -17 -16 -13 -17 -12 -4 4 13 16 21 21 21 13z m-617 -137 c31 -7 57 -15 57 -18 -1 -23 -137 -161 -160 -161 -13 0 -65 64 -79 98 -17 41 -9 59 31 77 41 17 78 18 151 4z m-243 -127 c11 -35 20 -79 20 -96 0 -29 -4 -34 -39 -45 -51 -15 -118 -4 -132 20 -16 30 6 91 58 159 43 58 47 61 60 44 8 -10 23 -47 33 -82z m508 -22 c7 -8 21 -32 33 -53 16 -31 17 -41 8 -60 -24 -45 -49 -49 -49 -7 0 41 -46 148 -78 185 -22 24 -18 22 23 -10 28 -22 56 -46 63 -55z m-105 11 c27 -30 77 -131 77 -156 0 -18 -145 6 -166 28 -4 4 -16 7 -26 7 -26 0 -32 23 -17 67 16 51 49 92 75 92 13 1 36 -15 57 -38z m-232 -148 c17 -20 13 -53 -9 -69 -13 -9 -21 -8 -39 3 -29 19 -29 47 -1 67 28 20 32 20 49 -1z m-214 -74 c30 -12 57 -28 60 -36 15 -39 -42 -143 -78 -143 -31 0 -92 71 -116 136 -13 33 -23 64 -23 68 0 13 95 -2 157 -25z m573 7 c0 -3 -5 -8 -12 -12 -7 -4 -8 -3 -4 4 7 12 16 16 16 8z m-98 -22 c26 -17 -3 -102 -63 -182 l-41 -53 -20 37 c-23 44 -52 174 -41 185 25 23 133 32 165 13z m-262 -104 c16 -11 38 -41 50 -66 l23 -46 -22 -21 c-19 -20 -32 -22 -120 -22 -55 0 -102 3 -106 7 -12 11 33 74 87 123 27 25 52 45 55 45 3 0 18 -9 33 -20z m198 -134 c-7 -8 -15 -12 -17 -11 -5 6 10 25 20 25 5 0 4 -6 -3 -14z m-293 -57 c28 -6 75 -9 105 -6 l55 4 -41 -17 c-123 -53 -223 -42 -224 24 0 15 5 17 28 12 15 -4 50 -12 77 -17z m275 -23 c0 -2 -8 -10 -17 -17 -16 -13 -17 -12 -4 4 13 16 21 21 21 13z m-170 -490 c0 -3 -5 -8 -12 -12 -7 -4 -8 -3 -4 4 7 12 16 16 16 8z m-80 -460 c0 -3 -5 -8 -12 -12 -7 -4 -8 -3 -4 4 7 12 16 16 16 8z"/>
<path d="M3346 2735 c-13 -20 -25 -25 -59 -25 -48 0 -98 -26 -123 -66 -23 -34 -31 -176 -14 -228 13 -41 60 -81 108 -91 52 -11 116 25 143 81 18 38 21 58 17 122 -3 44 -12 91 -21 109 -16 30 -16 34 0 61 14 25 15 32 4 46 -19 23 -36 20 -55 -9z m-41 -101 c27 -11 45 -60 45 -121 0 -99 -51 -153 -105 -111 -49 38 -57 157 -14 212 20 26 42 32 74 20z"/>
<path d="M1730 2521 l0 -191 61 0 c71 0 93 10 114 50 26 50 13 114 -29 149 -14 11 -11 21 19 82 44 87 45 99 2 99 -32 0 -35 -3 -68 -77 l-34 -78 -5 75 c-5 73 -6 75 -32 78 l-28 3 0 -190z m110 -40 c14 -28 12 -57 -6 -75 -31 -31 -44 -20 -44 39 0 48 2 55 20 55 10 0 24 -9 30 -19z"/>
<path d="M2011 2699 c-19 -8 -22 -14 -16 -37 9 -36 11 -37 39 -22 14 7 36 10 50 6 45 -11 35 -53 -29 -118 -46 -46 -55 -61 -55 -91 0 -20 5 -47 11 -61 15 -33 71 -59 109 -51 37 8 43 17 30 49 -8 22 -13 24 -33 17 -14 -5 -30 -5 -40 0 -30 17 -19 50 29 93 25 22 52 53 60 68 16 32 18 81 4 109 -23 41 -102 61 -159 38z"/>
<path d="M2319 2689 c-20 -12 -44 -35 -54 -51 -20 -34 -31 -138 -21 -192 9 -48 59 -103 106 -117 56 -17 121 16 149 75 37 75 25 201 -23 254 -48 54 -100 64 -157 31z m114 -81 c24 -32 28 -127 8 -176 -15 -35 -51 -57 -80 -47 -62 19 -79 186 -24 240 23 24 72 15 96 -17z"/>
<path d="M2582 2518 l3 -193 29 0 c27 0 31 6 70 105 l41 105 3 -108 3 -108 32 3 32 3 0 190 0 190 -30 0 c-28 0 -32 -5 -70 -93 l-40 -93 -5 93 -5 93 -33 3 -32 3 2 -193z"/>
<path d="M2853 2688 c3 -13 22 -101 43 -196 l37 -173 35 3 35 3 39 180 c21 99 36 185 34 192 -3 7 -17 13 -31 13 -20 0 -29 -7 -36 -30 -9 -25 -16 -30 -44 -30 -28 0 -33 4 -38 30 -6 27 -10 30 -43 30 -32 0 -36 -2 -31 -22z m126 -130 c0 -13 -4 -32 -9 -43 l-9 -20 0 20 c-1 11 -4 30 -7 43 -5 16 -2 22 10 22 10 0 16 -8 15 -22z"/>
<path d="M3533 2700 c-42 -17 -52 -48 -59 -191 -9 -172 -5 -189 41 -189 l35 0 0 144 c0 116 3 148 15 160 18 17 40 12 51 -12 4 -9 10 -78 13 -152 l6 -135 30 0 30 0 0 156 c0 168 -7 198 -52 218 -28 13 -79 13 -110 1z"/>
<path d="M1260 2515 l0 -185 59 0 c73 0 106 24 119 85 17 82 -24 155 -89 155 l-29 0 0 65 0 65 -30 0 -30 0 0 -185z m102 -12 c25 -22 24 -77 -2 -103 -30 -30 -40 -17 -40 56 0 68 8 78 42 47z"/>
<path d="M1507 2694 c-4 -4 -7 -85 -7 -179 0 -136 3 -175 14 -184 9 -7 41 -11 83 -9 l68 3 3 32 c3 31 3 32 -45 35 -48 3 -48 3 -51 41 l-3 37 45 0 c44 0 46 1 46 30 0 29 -2 30 -45 30 l-45 0 0 49 0 50 48 3 c45 3 47 4 47 33 l0 30 -75 3 c-42 1 -79 0 -83 -4z"/>
</g>
<g id="layer105" fill="#197673" stroke="none">
<path d="M1890 3070 l0 -120 35 0 c19 0 35 5 35 10 0 6 -9 10 -20 10 -17 0 -20 7 -20 45 0 33 4 45 15 45 8 0 15 5 15 10 0 6 -7 13 -15 16 -11 4 -15 21 -15 55 0 37 -4 49 -15 49 -12 0 -15 -20 -15 -120z"/>
<path d="M2000 3070 c0 -100 3 -120 15 -120 13 0 15 20 15 120 0 100 -2 120 -15 120 -12 0 -15 -20 -15 -120z"/>
<path d="M2087 3184 c-4 -4 -7 -58 -7 -121 0 -103 2 -113 18 -113 14 0 22 14 34 63 l16 62 1 -62 c1 -49 4 -63 16 -63 13 0 15 20 15 120 0 96 -3 120 -14 120 -9 0 -19 -20 -28 -52 l-13 -53 -5 49 c-5 46 -17 65 -33 50z"/>
<path d="M2240 3070 l0 -120 24 0 c54 0 56 5 56 114 0 111 -6 126 -52 126 l-28 0 0 -120z m54 68 c11 -44 6 -134 -9 -154 -17 -22 -16 -27 -16 81 0 104 -1 95 10 95 5 0 11 -10 15 -22z"/>
<path d="M2695 1937 c-33 -13 -78 -35 -100 -51 -43 -30 -33 -30 60 4 68 25 156 30 179 11 16 -13 23 -61 9 -61 -5 0 -30 7 -57 15 -70 21 -164 19 -201 -4 l-31 -18 -34 28 c-50 42 -102 40 -144 -5 -18 -18 -38 -52 -44 -74 -18 -59 -25 -162 -13 -197 9 -28 9 -26 10 21 1 65 26 149 58 197 20 28 32 37 55 37 46 0 44 -24 -6 -70 -54 -50 -96 -130 -96 -182 0 -30 -4 -38 -17 -38 -30 0 -83 -38 -94 -68 -23 -59 30 -146 126 -207 74 -46 97 -50 45 -7 -73 60 -110 104 -122 145 -13 44 -3 72 27 72 13 0 21 -16 34 -66 19 -77 59 -142 99 -163 27 -14 28 -18 24 -68 -3 -43 0 -58 18 -80 31 -41 83 -51 156 -32 64 16 196 85 176 92 -7 2 -10 8 -7 13 3 4 24 -5 47 -21 56 -41 100 -40 139 3 50 54 62 91 63 205 l1 104 30 12 c37 16 51 32 59 71 14 64 -54 152 -165 214 -62 34 -78 39 -59 16 11 -13 10 -14 -3 -9 -11 4 -14 14 -10 39 10 60 -4 102 -41 124 -43 27 -95 26 -171 -2z m88 -108 c31 -7 57 -15 57 -18 -1 -23 -137 -161 -160 -161 -13 0 -65 64 -79 98 -17 41 -9 59 31 77 41 17 78 18 151 4z m-243 -127 c11 -35 20 -79 20 -96 0 -29 -4 -34 -39 -45 -51 -15 -118 -4 -132 20 -16 30 6 91 58 159 43 58 47 61 60 44 8 -10 23 -47 33 -82z m488 -3 c32 -32 72 -97 72 -119 0 -13 -37 -50 -50 -50 -5 0 -10 14 -10 30 0 41 -46 148 -78 184 l-27 29 30 -20 c17 -12 45 -36 63 -54z m-96 8 c25 -21 88 -138 88 -164 0 -28 -177 3 -214 38 -13 11 11 87 38 121 26 33 52 34 88 5z m-221 -164 c17 -20 13 -53 -9 -69 -13 -9 -21 -8 -39 3 -30 20 -30 57 0 71 30 15 33 14 48 -5z m-214 -74 c30 -12 57 -28 60 -36 8 -20 -13 -85 -38 -117 -28 -36 -56 -33 -98 12 -30 32 -81 137 -81 166 0 13 95 -2 157 -25z m464 -9 c40 -22 18 -100 -52 -189 l-42 -53 -19 37 c-24 45 -52 175 -41 186 24 23 123 35 154 19z m76 -37 c-3 -10 -5 -2 -5 17 0 19 2 27 5 18 2 -10 2 -26 0 -35z m-13 -92 c-7 -57 -53 -136 -84 -146 -10 -3 -27 -1 -38 6 -18 11 -16 16 38 68 31 31 63 73 70 93 18 49 23 42 14 -21z m-298 7 c15 -18 33 -48 41 -67 13 -31 13 -35 -7 -55 -18 -19 -32 -21 -119 -21 -55 0 -102 3 -106 7 -18 18 116 168 150 168 7 0 26 -15 41 -32z m-135 -174 c38 -10 86 -14 123 -12 l60 5 -44 -19 c-119 -51 -219 -39 -220 25 0 21 3 21 81 1z"/>
</g>
<g id="layer106" fill="#158878" stroke="none">
<path d="M2164 3182 c-6 -4 -16 -29 -24 -57 -19 -74 -30 -77 -30 -7 0 35 -4 62 -10 62 -6 0 -10 -45 -10 -115 0 -149 12 -152 46 -12 12 53 21 36 16 -33 -4 -60 -2 -70 12 -70 14 0 16 16 16 120 0 66 -1 120 -2 120 -2 0 -8 -4 -14 -8z"/>
<path d="M2000 3065 c0 -96 3 -115 15 -115 12 0 15 19 15 115 0 96 -3 115 -15 115 -12 0 -15 -19 -15 -115z"/>
<path d="M1930 2960 c0 -5 5 -10 10 -10 6 0 10 5 10 10 0 6 -4 10 -10 10 -5 0 -10 -4 -10 -10z"/>
<path d="M2695 1937 c-33 -13 -78 -36 -100 -51 -22 -16 -31 -25 -20 -21 138 49 228 61 259 36 16 -13 23 -61 9 -61 -5 0 -30 7 -57 15 -69 21 -144 19 -190 -5 l-39 -19 -36 29 c-40 34 -93 40 -128 15 -37 -26 -65 -102 -69 -185 -3 -74 -3 -74 6 -22 17 94 68 172 112 172 43 0 43 -22 2 -66 -65 -68 -94 -123 -94 -175 0 -44 -1 -47 -32 -53 -54 -11 -78 -42 -78 -101 0 -56 25 -100 85 -147 73 -58 142 -86 75 -31 -77 64 -118 110 -130 149 -12 36 -11 39 14 61 15 13 30 23 35 23 4 0 15 -35 25 -77 20 -91 55 -149 98 -168 31 -12 32 -14 30 -71 -2 -68 8 -87 62 -109 34 -14 43 -14 99 0 66 17 199 86 179 93 -7 2 -10 8 -7 13 3 4 24 -5 47 -21 56 -41 100 -40 139 3 50 54 62 91 63 205 l1 104 30 12 c37 16 51 32 59 71 14 64 -54 152 -165 214 -62 34 -78 39 -59 16 11 -13 10 -14 -3 -9 -11 4 -14 14 -10 39 10 60 -4 102 -41 124 -43 27 -95 26 -171 -2z m88 -108 c31 -7 57 -15 57 -18 -1 -23 -137 -161 -159 -161 -13 0 -58 54 -79 96 -24 47 -18 63 30 81 43 15 82 16 151 2z m-243 -127 c11 -35 20 -79 20 -96 0 -30 -4 -34 -40 -45 -41 -12 -105 -6 -127 12 -32 24 -5 102 59 177 39 46 44 49 56 33 7 -10 22 -46 32 -81z m7 51 c-3 -10 -5 -4 -5 12 0 17 2 24 5 18 2 -7 2 -21 0 -30z m481 -54 c32 -32 72 -97 72 -119 0 -13 -37 -50 -50 -50 -5 0 -10 14 -10 30 0 41 -46 148 -78 184 l-27 29 30 -20 c17 -12 45 -36 63 -54z m-96 8 c25 -21 88 -138 88 -164 0 -28 -177 3 -214 38 -13 11 11 87 38 121 26 33 52 34 88 5z m-220 -164 c42 -38 -1 -95 -49 -65 -39 24 -22 74 26 81 3 1 13 -6 23 -16z m-215 -74 c30 -12 57 -28 60 -36 8 -20 -13 -85 -38 -117 -26 -33 -49 -33 -87 -1 -31 26 -92 138 -92 169 0 17 6 18 51 12 28 -4 75 -16 106 -27z m464 -9 c40 -22 18 -100 -52 -189 l-42 -53 -19 37 c-24 45 -52 175 -41 186 24 23 123 35 154 19z m76 -37 c-3 -10 -5 -2 -5 17 0 19 2 27 5 18 2 -10 2 -26 0 -35z m-13 -92 c-7 -57 -53 -136 -84 -146 -10 -3 -27 -1 -38 6 -18 11 -16 16 38 68 31 31 63 73 70 93 18 49 23 42 14 -21z m-298 7 c15 -18 33 -48 41 -67 13 -31 13 -35 -7 -55 -18 -19 -32 -21 -120 -21 -138 0 -141 6 -48 100 42 41 83 75 91 75 8 0 28 -15 43 -32z m-43 -182 l87 -1 -42 -18 c-82 -35 -171 -41 -205 -14 -7 5 -13 22 -13 38 l0 28 43 -16 c25 -10 76 -16 130 -17z"/>
</g>
<g id="layer107" fill="#4e4386" stroke="none">
<path d="M3032 3178 c-16 -16 -16 -71 1 -66 6 3 13 14 15 26 4 27 19 28 27 2 7 -22 -4 -47 -34 -74 -38 -35 -19 -126 27 -126 17 0 42 30 42 51 0 26 -29 24 -39 -3 -9 -23 -9 -23 -16 4 -6 23 -1 35 24 63 49 56 41 135 -14 135 -12 0 -26 -5 -33 -12z"/>
<path d="M3160 3070 l0 -120 35 0 c38 0 48 19 15 27 -25 7 -30 73 -5 73 8 0 15 7 15 15 0 8 -7 15 -15 15 -25 0 -20 66 5 73 11 3 20 12 20 21 0 12 -10 16 -35 16 l-35 0 0 -120z"/>
<path d="M3380 3070 l0 -120 35 0 c24 0 35 5 35 15 0 8 -7 15 -15 15 -11 0 -15 11 -15 40 0 29 4 40 15 40 8 0 15 5 15 10 0 6 -7 13 -15 16 -11 4 -15 21 -15 55 0 42 -3 49 -20 49 -19 0 -20 -7 -20 -120z"/>
<path d="M3348 2732 c-19 -23 -30 -28 -58 -25 -45 5 -99 -24 -125 -68 -29 -50 -29 -205 1 -245 66 -89 161 -90 227 -2 38 51 32 214 -10 261 -15 16 -15 19 5 40 27 29 28 43 3 57 -16 8 -24 5 -43 -18z m-19 -118 c16 -21 21 -41 21 -90 0 -75 -11 -108 -43 -129 -36 -23 -70 -6 -91 44 -27 70 -17 159 21 189 28 21 70 15 92 -14z"/>
<path d="M1730 2521 l0 -191 63 0 c74 0 100 15 117 66 14 42 7 78 -26 121 l-25 32 36 70 c19 39 35 75 35 81 0 7 -14 10 -32 8 -30 -3 -36 -10 -70 -78 l-36 -75 -4 75 c-3 73 -4 75 -30 78 l-28 3 0 -190z m110 -40 c23 -43 6 -91 -32 -91 -15 0 -18 9 -18 55 0 48 2 55 20 55 10 0 24 -9 30 -19z"/>
<path d="M2011 2699 c-19 -8 -22 -14 -16 -37 9 -35 9 -36 35 -22 11 6 33 10 48 8 22 -2 28 -9 30 -34 3 -26 -6 -40 -52 -87 -49 -49 -56 -62 -56 -96 0 -72 70 -126 133 -102 24 9 25 13 16 40 -10 27 -13 29 -34 19 -18 -8 -28 -8 -40 2 -26 21 -17 51 28 93 76 73 92 113 65 172 -22 48 -96 69 -157 44z"/>
<path d="M2335 2696 c-60 -27 -94 -92 -95 -181 0 -74 16 -120 56 -154 29 -26 43 -31 84 -31 95 0 148 79 137 207 -2 34 -13 76 -23 94 -38 64 -103 91 -159 65z m99 -89 c40 -55 23 -189 -28 -217 -35 -18 -65 -3 -87 43 -30 66 -19 174 19 197 30 18 73 7 96 -23z"/>
<path d="M2580 2520 l0 -191 32 3 c30 3 34 8 72 103 l41 100 3 -102 3 -103 35 0 34 0 -2 188 -3 187 -30 0 c-28 0 -32 -5 -71 -98 -22 -53 -44 -101 -49 -105 -4 -4 -6 40 -4 98 l4 105 -32 3 -33 3 0 -191z"/>
<path d="M3529 2696 c-40 -23 -48 -56 -55 -209 -6 -123 -5 -144 9 -155 9 -8 26 -12 39 -10 23 3 23 6 28 152 4 127 8 150 22 160 14 8 22 7 35 -7 15 -15 19 -40 21 -155 2 -75 7 -141 12 -146 5 -5 20 -6 34 -2 l26 6 0 133 c0 143 -9 194 -40 222 -26 23 -98 29 -131 11z"/>
<path d="M3755 2698 c-3 -8 -4 -95 -3 -193 l3 -180 35 0 35 0 0 190 0 190 -33 3 c-20 2 -34 -2 -37 -10z"/>
<path d="M3888 2704 c-4 -3 16 -71 43 -152 27 -80 49 -150 49 -154 0 -4 -19 -8 -42 -10 -40 -3 -43 -5 -43 -33 l0 -30 88 -3 c86 -3 87 -2 87 21 0 13 -20 79 -45 146 -25 67 -45 129 -45 137 0 10 13 14 50 14 l50 0 0 35 0 35 -93 0 c-52 0 -96 -3 -99 -6z"/>
<path d="M1509 2668 c-2 -18 -2 -101 -1 -185 l4 -151 68 -7 c38 -4 74 -4 79 0 6 3 11 19 11 36 0 28 -1 29 -50 29 l-50 0 0 40 0 40 45 0 c43 0 45 1 45 30 0 29 -2 30 -45 30 l-45 0 0 49 0 50 48 3 c45 3 47 4 47 33 l0 30 -76 3 -77 3 -3 -33z"/>
<path d="M2871 2613 c11 -49 29 -132 41 -186 l21 -98 35 3 35 3 38 175 c21 96 38 178 39 183 0 4 -14 7 -30 7 -23 0 -33 -6 -40 -25 -8 -20 -16 -25 -44 -25 -28 0 -35 4 -40 25 -5 21 -12 25 -40 25 l-34 0 19 -87z m111 -48 c-1 -11 -5 -31 -9 -45 l-6 -25 -7 25 c-15 47 -12 72 8 68 10 -2 16 -11 14 -23z"/>
<path d="M2695 1937 c-33 -13 -78 -36 -100 -51 -22 -16 -31 -25 -20 -21 138 49 228 61 259 36 15 -13 23 -61 10 -61 -3 0 -30 7 -59 16 -67 19 -160 16 -160 -6 0 -12 10 -14 44 -12 47 4 171 -16 171 -27 -1 -24 -137 -161 -160 -161 -5 0 -12 4 -15 10 -3 5 -14 14 -25 20 -16 8 -18 6 -16 -21 1 -16 -1 -32 -4 -34 -4 -2 -23 22 -44 53 -35 53 -37 61 -32 109 6 50 5 53 -27 77 -67 52 -157 21 -157 -52 l1 -37 28 33 c18 21 36 32 55 32 39 0 41 -22 6 -59 -28 -31 -38 -51 -24 -51 4 0 21 16 39 36 l33 36 18 -33 c22 -43 44 -125 44 -165 0 -27 -4 -32 -40 -43 -22 -6 -55 -9 -74 -6 -32 6 -33 5 -29 -19 7 -33 -13 -35 -51 -5 -30 23 -56 19 -56 -9 0 -16 10 -20 65 -25 35 -3 90 -17 122 -29 65 -26 60 -12 47 -153 l-7 -70 67 63 c37 34 73 62 81 62 7 0 27 -17 44 -37 35 -42 37 -38 16 31 -8 27 -15 64 -15 83 0 32 -21 46 -35 23 -4 -6 -16 -4 -31 6 -32 22 -32 57 1 72 22 10 31 8 66 -15 l40 -26 -2 -121 c0 -67 2 -128 5 -137 4 -9 -2 -23 -15 -35 -18 -16 -36 -19 -130 -19 -60 1 -109 -2 -109 -6 0 -14 99 -34 173 -34 l77 0 -42 -18 c-56 -24 -126 -37 -160 -30 -23 4 -28 2 -28 -15 0 -30 27 -34 95 -16 65 16 197 85 177 92 -7 2 -10 8 -7 13 3 4 24 -5 47 -21 56 -41 100 -40 139 3 50 54 62 91 63 205 l1 104 30 12 c37 16 51 32 59 71 14 64 -54 152 -165 214 -62 34 -78 39 -59 16 11 -13 10 -14 -3 -9 -11 4 -14 14 -10 39 10 60 -4 102 -41 124 -43 27 -95 26 -171 -2z m333 -238 c32 -32 72 -97 72 -119 0 -13 -37 -50 -50 -50 -5 0 -10 14 -10 30 0 41 -46 148 -78 184 l-27 29 30 -20 c17 -12 45 -36 63 -54z m-96 8 c25 -21 88 -138 88 -164 0 -28 -177 3 -214 38 -13 11 11 87 38 121 26 33 52 34 88 5z m29 -247 c40 -22 18 -100 -52 -189 l-42 -53 -19 37 c-24 45 -52 175 -41 186 24 23 123 35 154 19z m76 -37 c-3 -10 -5 -2 -5 17 0 19 2 27 5 18 2 -10 2 -26 0 -35z m-13 -92 c-7 -57 -53 -136 -84 -146 -10 -3 -27 -1 -38 6 -18 11 -16 16 38 68 31 31 63 73 70 93 18 49 23 42 14 -21z"/>
<path d="M5539 1143 c-1 -5 -1 -11 -1 -14 1 -3 -5 -6 -13 -6 -8 0 -12 4 -9 9 3 4 0 8 -5 8 -6 0 -11 -4 -11 -10 0 -5 -6 -9 -12 -7 -7 1 -12 -3 -11 -9 1 -6 -4 -11 -12 -11 -8 0 -12 4 -9 9 3 4 0 8 -5 8 -6 0 -11 -4 -11 -8 0 -4 -10 -8 -21 -9 -12 -1 -27 -7 -33 -14 -8 -8 -8 -10 0 -6 6 3 11 0 11 -7 0 -7 -6 -13 -13 -13 -7 0 -12 4 -11 8 1 4 -2 7 -8 7 -5 0 -9 -4 -8 -8 2 -5 -6 -7 -17 -5 -11 2 -26 -3 -35 -11 -8 -8 -18 -16 -22 -17 -4 -1 -7 -5 -6 -9 2 -4 -6 -5 -17 -3 -11 2 -27 -4 -37 -13 -9 -9 -19 -17 -22 -17 -3 0 -5 -3 -3 -7 1 -5 -1 -7 -5 -7 -22 4 -41 -3 -59 -18 -11 -10 -29 -23 -40 -30 -10 -6 -18 -16 -16 -22 1 -6 -4 -10 -10 -9 -7 2 -12 -3 -10 -10 1 -6 -4 -11 -10 -10 -7 2 -12 -2 -11 -9 1 -6 -5 -10 -15 -8 -24 4 -171 -142 -167 -166 2 -10 -1 -18 -8 -16 -7 1 -11 -4 -10 -10 2 -7 -3 -12 -10 -10 -6 1 -11 -5 -9 -13 2 -8 0 -12 -4 -8 -10 10 -34 -11 -34 -29 0 -8 4 -12 8 -9 5 3 9 -1 9 -8 0 -7 -6 -13 -13 -13 -7 0 -11 4 -8 9 10 16 -9 8 -22 -9 -9 -13 -9 -22 -1 -31 8 -10 7 -12 -4 -10 -8 2 -13 -3 -12 -9 2 -7 0 -12 -5 -10 -4 1 -9 -2 -11 -8 -3 -5 -10 -16 -17 -23 -7 -7 -11 -21 -9 -32 2 -11 1 -19 -3 -17 -4 1 -8 -2 -9 -6 -1 -4 -9 -14 -17 -22 -8 -9 -13 -24 -11 -35 2 -11 -1 -19 -8 -17 -6 1 -12 -2 -12 -8 -1 -5 -5 -18 -9 -27 -4 -9 -9 -22 -10 -30 -2 -7 -6 -21 -10 -30 -4 -9 -9 -22 -10 -30 -2 -7 -8 -24 -13 -38 -6 -14 -9 -33 -7 -43 1 -9 -1 -17 -7 -17 -5 0 -9 -5 -9 -11 0 -5 4 -8 8 -5 5 3 9 -1 9 -9 0 -8 -4 -12 -9 -9 -8 5 -11 -9 -11 -48 0 -10 -4 -18 -8 -18 -5 0 -9 -5 -9 -11 0 -5 6 -7 13 -3 9 6 8 3 -1 -8 -12 -15 27 -17 492 -18 l506 -1 0 576 c0 316 -2 575 -5 575 -3 0 -6 -3 -6 -7z m-382 -186 c0 -8 -6 -14 -14 -14 -9 0 -10 4 -2 14 6 7 12 13 14 13 1 0 2 -6 2 -13z m-160 -120 c0 -8 -6 -14 -14 -14 -9 0 -10 4 -2 14 6 7 12 13 14 13 1 0 2 -6 2 -13z m-40 -40 c0 -8 -6 -14 -14 -14 -9 0 -10 4 -2 14 6 7 12 13 14 13 1 0 2 -6 2 -13z m-40 -40 c0 -8 -6 -14 -14 -14 -9 0 -10 4 -2 14 6 7 12 13 14 13 1 0 2 -6 2 -13z m-40 -42 c0 -8 -4 -12 -9 -9 -5 3 -6 10 -3 15 9 13 12 11 12 -6z m-160 -240 c0 -8 -4 -12 -9 -9 -5 3 -6 10 -3 15 9 13 12 11 12 -6z m-40 -80 c0 -8 -4 -12 -9 -9 -5 3 -6 10 -3 15 9 13 12 11 12 -6z m-40 -100 c0 -8 -4 -12 -9 -9 -5 3 -6 10 -3 15 9 13 12 11 12 -6z m-40 -120 c0 -8 -4 -12 -9 -9 -5 3 -6 10 -3 15 9 13 12 11 12 -6z"/>
</g>
<g id="layer108" fill="#17978b" stroke="none">
<path d="M2164 3182 c-13 -9 -44 -119 -43 -153 1 -19 3 -17 11 11 17 61 26 54 20 -19 -4 -61 -2 -71 12 -71 14 0 16 16 16 120 0 66 -1 120 -2 120 -2 0 -8 -4 -14 -8z"/>
<path d="M2240 3070 l0 -120 24 0 c54 0 56 5 56 114 0 111 -6 126 -52 126 l-28 0 0 -120z m55 -6 c0 -68 -3 -89 -13 -89 -11 0 -14 21 -13 88 0 48 0 90 1 93 0 3 6 4 13 2 8 -3 12 -31 12 -94z"/>
<path d="M2695 1937 c-54 -20 -169 -90 -120 -72 11 4 45 16 75 27 66 24 160 29 184 9 15 -13 23 -61 10 -61 -3 0 -30 7 -59 16 -67 19 -160 16 -160 -6 0 -12 10 -14 46 -12 43 3 157 -12 167 -22 9 -9 -63 -97 -106 -131 -48 -37 -57 -41 -67 -25 -3 5 -14 14 -25 20 -16 8 -18 6 -16 -21 1 -16 -1 -32 -4 -34 -4 -2 -23 22 -44 53 -35 53 -37 61 -32 109 6 50 5 53 -27 77 -67 52 -157 21 -157 -52 l1 -37 28 33 c18 21 36 32 55 32 39 0 41 -22 6 -59 -28 -31 -38 -51 -24 -51 4 0 21 16 39 36 l33 36 18 -33 c22 -43 44 -125 44 -165 0 -27 -4 -32 -40 -43 -22 -6 -55 -9 -74 -6 -32 6 -33 5 -29 -19 7 -33 -13 -35 -51 -5 -30 24 -56 19 -56 -9 0 -16 10 -20 61 -25 33 -3 90 -16 125 -28 l66 -23 -6 -36 c-4 -19 -9 -64 -13 -100 l-6 -65 67 63 c37 34 73 62 81 62 7 0 27 -17 44 -37 35 -42 37 -38 16 31 -8 27 -15 64 -15 83 0 32 -21 46 -35 23 -4 -6 -16 -4 -31 6 -32 22 -32 57 1 72 22 10 31 8 66 -15 l40 -26 -2 -117 c-1 -64 1 -122 5 -128 14 -23 -5 -51 -41 -63 -24 -8 -69 -10 -127 -6 -79 5 -89 4 -72 -8 28 -21 123 -38 185 -33 l56 5 -42 -19 c-54 -23 -130 -38 -165 -31 -23 4 -28 2 -28 -15 0 -29 27 -34 93 -17 60 16 111 39 162 75 28 20 28 21 5 15 -23 -7 -24 -6 -9 10 16 16 19 15 59 -14 58 -42 96 -41 138 2 50 52 65 99 66 210 l1 97 35 18 c47 23 68 78 49 124 -21 50 -86 115 -154 153 -68 38 -84 43 -65 20 11 -13 10 -14 -2 -10 -11 4 -14 18 -10 59 4 48 1 56 -25 86 -39 44 -103 50 -188 17z m333 -238 c35 -34 72 -98 72 -123 0 -14 -36 -46 -51 -46 -3 0 -9 19 -12 43 -8 54 -40 127 -75 169 l-27 33 30 -22 c17 -12 45 -36 63 -54z m-82 -4 c28 -30 74 -126 74 -155 0 -26 -180 9 -214 41 -13 11 11 87 38 121 29 38 62 35 102 -7z m15 -235 c40 -22 19 -100 -51 -189 l-43 -54 -19 37 c-22 42 -52 175 -43 185 26 25 122 38 156 21z m79 -25 c0 -19 -2 -35 -4 -35 -2 0 -6 16 -8 35 -2 19 0 35 4 35 4 0 8 -16 8 -35z m-14 -97 c-15 -111 -89 -191 -134 -146 -9 9 3 27 53 78 35 37 67 79 70 93 12 45 18 30 11 -25z"/>
<path d="M2365 1365 c8 -50 45 -100 84 -113 26 -9 32 -8 45 13 21 32 20 33 -9 27 -25 -4 -66 29 -108 88 l-18 25 6 -40z"/>
<path d="M2310 1327 c0 -21 64 -72 113 -90 28 -10 14 5 -52 57 -36 28 -61 42 -61 33z"/>
</g>
<g id="layer109" fill="#17a59a" stroke="none">
<path d="M2490 3133 c0 -32 -7 -83 -15 -113 -18 -68 -18 -70 -1 -70 10 0 17 16 22 47 5 38 9 44 15 28 4 -11 8 -32 8 -47 1 -18 6 -28 16 -28 19 0 19 11 0 80 -8 30 -15 79 -15 108 0 39 -4 52 -15 52 -12 0 -15 -13 -15 -57z"/>
<path d="M2298 3067 c2 -72 7 -106 13 -97 14 23 11 186 -3 198 -10 8 -12 -13 -10 -101z"/>
<path d="M2695 1937 c-54 -20 -169 -90 -120 -72 11 4 45 16 75 27 66 24 160 29 184 9 17 -14 22 -61 7 -61 -5 0 -21 4 -36 10 -42 16 -115 20 -115 6 0 -8 28 -17 71 -23 39 -6 73 -14 76 -17 9 -9 -60 -96 -106 -131 -42 -33 -45 -39 -42 -75 1 -22 -2 -40 -7 -40 -18 0 -102 91 -123 133 -17 32 -20 51 -15 88 6 46 5 49 -28 74 -26 20 -44 26 -73 23 -32 -3 -38 -7 -41 -28 -3 -23 0 -25 35 -25 32 0 39 -4 41 -23 2 -12 7 -20 12 -17 20 12 70 -125 70 -191 0 -27 -5 -32 -40 -43 -22 -6 -39 -15 -39 -19 5 -28 -4 -41 -28 -44 -23 -2 -16 -7 40 -27 73 -27 76 -33 57 -101 l-9 -35 29 33 c30 32 32 31 32 -20 l1 -27 38 25 c21 13 43 24 48 24 5 0 21 -14 36 -31 32 -39 39 -34 21 17 -7 22 -17 58 -21 82 -7 41 -17 52 -30 32 -4 -6 -16 -4 -31 6 -32 22 -32 57 1 72 23 11 32 8 80 -23 39 -24 55 -41 55 -56 0 -18 4 -20 28 -15 108 26 152 16 152 -35 0 -42 -21 -86 -71 -149 l-43 -54 -28 59 -27 60 -1 -59 c0 -53 -2 -58 -14 -41 -13 18 -14 18 -20 -3 -11 -33 -66 -46 -170 -39 -79 5 -89 4 -72 -8 28 -21 123 -38 185 -33 l56 5 -40 -18 c-22 -10 -56 -21 -75 -25 -37 -7 -60 -21 -60 -35 0 -23 121 20 187 66 30 21 33 25 13 20 -23 -7 -24 -6 -9 10 16 16 19 15 59 -14 58 -42 96 -41 138 2 50 52 65 99 66 210 l1 97 35 18 c47 23 68 78 49 124 -21 50 -86 115 -154 153 -68 38 -84 43 -65 20 11 -13 10 -14 -2 -10 -11 4 -14 18 -10 59 4 48 1 56 -25 86 -39 44 -103 50 -188 17z m333 -238 c35 -34 72 -98 72 -123 0 -14 -36 -46 -51 -46 -3 0 -9 19 -12 43 -8 54 -40 127 -75 169 l-27 33 30 -22 c17 -12 45 -36 63 -54z m-82 -4 c28 -30 74 -126 74 -155 0 -6 -19 -10 -43 -10 -40 0 -97 17 -183 54 l-39 17 53 56 c28 31 52 60 52 65 0 4 12 8 26 8 17 0 38 -12 60 -35z m94 -260 c0 -19 -2 -35 -4 -35 -2 0 -6 16 -8 35 -2 19 0 35 4 35 4 0 8 -16 8 -35z m-14 -97 c-15 -111 -89 -191 -134 -146 -9 9 3 27 53 78 35 37 67 79 70 93 12 45 18 30 11 -25z"/>
<path d="M2590 1750 c0 -7 3 -10 7 -7 3 4 3 10 0 14 -4 3 -7 0 -7 -7z"/>
<path d="M2402 1309 c4 -41 47 -71 75 -53 27 17 26 31 -4 37 -15 3 -38 15 -51 27 l-23 22 3 -33z"/>
<path d="M2380 1266 c0 -2 7 -7 16 -10 8 -3 12 -2 9 4 -6 10 -25 14 -25 6z"/>
<path d="M2425 1240 c3 -5 8 -10 11 -10 3 0 2 5 -1 10 -3 6 -8 10 -11 10 -3 0 -2 -4 1 -10z"/>
</g>
<g id="layer110" fill="#209aa6" stroke="none">
<path d="M2490 3136 c0 -29 -3 -82 -6 -117 -4 -35 -4 -61 0 -58 4 4 9 20 10 35 2 16 4 33 5 37 0 5 6 5 11 2 6 -3 10 -24 10 -46 0 -28 4 -39 15 -39 15 0 14 23 -6 100 -5 19 -9 59 -9 88 0 39 -4 52 -15 52 -11 0 -15 -13 -15 -54z"/>
<path d="M2612 3178 c-13 -13 -18 -182 -6 -212 4 -10 18 -16 35 -16 22 0 32 6 39 26 11 28 12 146 1 184 -8 28 -48 39 -69 18z m42 -34 c3 -9 6 -44 6 -79 0 -67 -6 -95 -21 -95 -5 0 -9 43 -9 95 0 88 9 118 24 79z"/>
<path d="M2752 3178 c-8 -8 -12 -49 -12 -120 0 -89 3 -108 15 -108 12 0 15 18 15 106 0 80 3 105 13 102 8 -3 13 -36 15 -106 2 -82 6 -102 17 -102 12 0 15 18 15 94 0 112 -10 146 -43 146 -13 0 -28 -5 -35 -12z"/>
<path d="M2691 1936 c-35 -14 -73 -34 -85 -46 l-21 -21 60 22 c71 25 165 30 189 10 9 -7 16 -25 16 -38 0 -23 -3 -24 -27 -18 -43 11 -55 11 -60 -1 -2 -7 13 -14 37 -18 22 -3 40 -9 40 -12 0 -17 -74 -103 -114 -133 l-45 -34 31 -23 31 -23 31 24 c17 13 45 42 61 64 38 52 66 53 111 6 28 -30 74 -126 74 -155 0 -20 -87 -9 -169 20 -46 17 -84 30 -85 30 -1 0 -2 -16 -2 -35 0 -25 5 -37 18 -41 12 -3 18 -15 18 -36 0 -28 2 -30 28 -24 137 33 180 3 138 -97 -18 -45 -95 -139 -106 -132 -6 4 -10 -9 -10 -29 0 -70 83 -90 138 -33 50 52 65 99 66 210 l1 97 35 18 c47 23 68 78 49 124 -21 50 -86 115 -154 153 -68 38 -84 43 -65 20 11 -13 10 -14 -2 -10 -11 4 -14 18 -10 59 4 48 1 56 -25 86 -40 45 -102 50 -192 16z m337 -237 c35 -34 72 -98 72 -123 0 -14 -36 -46 -51 -46 -3 0 -9 19 -12 43 -8 54 -40 127 -75 169 l-27 33 30 -22 c17 -12 45 -36 63 -54z m12 -264 c0 -19 -2 -35 -4 -35 -2 0 -6 16 -8 35 -2 19 0 35 4 35 4 0 8 -16 8 -35z m-14 -97 c-15 -111 -89 -191 -134 -146 -9 9 3 27 53 78 35 37 67 79 70 93 12 45 18 30 11 -25z"/>
<path d="M2440 1871 c0 -23 46 -55 67 -47 13 5 14 4 4 -8 -10 -12 -8 -22 7 -52 l19 -37 6 54 c5 51 4 55 -26 82 -37 32 -77 36 -77 8z"/>
<path d="M2563 1863 c4 -3 10 -3 14 0 3 4 0 7 -7 7 -7 0 -10 -3 -7 -7z"/>
<path d="M2546 1690 c10 -37 9 -168 0 -177 -3 -3 -26 -11 -51 -17 l-45 -12 56 -19 56 -19 -6 -45 -6 -45 27 25 c16 14 43 36 61 48 l32 22 0 -33 c1 -27 9 -40 45 -71 l44 -38 -14 40 c-7 22 -17 60 -20 85 -7 44 -17 57 -30 36 -9 -15 -55 19 -55 42 0 11 10 28 21 37 l21 17 -26 18 c-15 9 -47 45 -73 79 -42 58 -45 60 -37 27z"/>
<path d="M2775 1231 c-10 -32 -67 -44 -169 -38 -79 5 -89 4 -72 -8 28 -21 123 -38 185 -33 l55 5 -52 -25 c-29 -13 -52 -28 -52 -32 0 -15 61 8 109 40 31 21 38 29 21 24 -24 -6 -24 -6 -7 13 20 23 21 32 3 56 -14 18 -14 18 -21 -2z"/>
</g>
<g id="layer111" fill="#2a91b2" stroke="none">
<path d="M2880 3070 l0 -120 34 0 c18 0 38 6 44 13 6 7 11 47 10 89 0 42 3 90 7 107 5 24 3 31 -8 31 -14 0 -27 -40 -27 -86 0 -15 -6 -24 -15 -24 -12 0 -15 13 -15 55 0 42 -3 55 -15 55 -12 0 -15 -20 -15 -120z m58 -57 c-4 -52 -28 -56 -28 -4 0 30 4 41 16 41 11 0 14 -9 12 -37z"/>
<path d="M3032 3178 c-16 -16 -16 -71 1 -66 6 3 13 15 15 27 5 29 26 22 30 -10 2 -17 -7 -34 -28 -54 -48 -46 -39 -125 15 -125 26 0 45 18 45 42 0 25 -26 23 -33 -3 -7 -28 -27 -15 -27 18 0 15 12 36 30 53 49 46 39 130 -15 130 -12 0 -26 -5 -33 -12z"/>
<path d="M3160 3070 l0 -120 35 0 c19 0 35 5 35 10 0 6 -9 10 -20 10 -17 0 -20 7 -20 40 0 29 4 40 15 40 8 0 15 7 15 15 0 8 -7 15 -15 15 -11 0 -15 11 -15 40 0 33 3 40 20 40 11 0 20 7 20 15 0 10 -11 15 -35 15 l-35 0 0 -120z"/>
<path d="M3270 3070 c0 -100 3 -120 15 -120 12 0 15 18 15 101 0 92 2 101 20 106 35 9 24 33 -15 33 l-35 0 0 -120z"/>
<path d="M3380 3070 l0 -120 35 0 c36 0 47 13 20 24 -17 6 -22 86 -5 86 6 0 10 7 10 15 0 8 -4 15 -10 15 -5 0 -10 23 -10 50 0 43 -3 50 -20 50 -19 0 -20 -7 -20 -120z"/>
<path d="M2710 1942 c-41 -15 -120 -59 -120 -66 0 -2 26 6 58 16 69 24 162 28 186 9 9 -7 16 -27 16 -43 0 -25 -3 -29 -17 -23 -10 3 -31 9 -48 12 -23 4 -27 2 -15 -6 8 -6 25 -11 37 -11 12 0 25 -5 28 -10 9 -14 -48 -90 -102 -135 l-46 -38 27 -24 27 -23 32 24 c18 14 46 43 62 65 38 52 66 53 111 6 29 -31 74 -126 74 -157 0 -15 -117 -5 -160 14 -42 18 -90 38 -93 38 -2 0 -3 -16 -3 -35 0 -25 5 -37 18 -41 12 -3 18 -15 18 -36 0 -28 2 -30 28 -24 137 33 180 3 138 -97 -18 -45 -95 -139 -106 -132 -15 9 -12 -61 3 -73 6 -6 29 -13 50 -17 34 -7 42 -4 69 21 53 50 72 106 72 217 l1 97 35 18 c47 23 68 78 49 124 -21 50 -86 115 -154 153 -67 38 -84 43 -66 21 10 -12 9 -14 -6 -11 -10 2 -20 4 -22 4 -3 1 0 6 7 13 7 7 12 31 12 55 0 64 -40 104 -106 109 -30 2 -66 -3 -94 -14z m318 -243 c35 -34 72 -98 72 -123 0 -14 -36 -46 -51 -46 -3 0 -9 19 -12 43 -8 54 -40 127 -75 169 l-27 33 30 -22 c17 -12 45 -36 63 -54z m12 -264 c0 -19 -2 -35 -4 -35 -2 0 -6 16 -8 35 -2 19 0 35 4 35 4 0 8 -16 8 -35z m-14 -97 c-15 -111 -89 -191 -134 -146 -9 9 3 27 53 78 35 37 67 79 70 93 12 45 18 30 11 -25z"/>
<path d="M2544 1695 c16 -62 23 -125 15 -125 -5 0 -9 -13 -9 -30 0 -25 -5 -31 -40 -41 l-40 -12 27 -13 c16 -6 36 -15 47 -18 16 -6 18 -13 12 -53 l-6 -47 27 25 c16 14 43 36 61 48 l32 22 1 -33 c1 -26 10 -41 45 -72 l44 -39 -14 39 c-7 22 -17 59 -21 82 -5 32 -11 42 -22 38 -20 -8 -63 23 -63 46 0 11 10 28 21 37 l21 17 -26 18 c-15 9 -47 45 -73 79 -38 51 -45 57 -39 32z"/>
<path d="M2775 1231 c-9 -30 -66 -44 -166 -39 -48 2 -86 0 -83 -4 3 -4 13 -8 23 -8 9 0 23 -6 29 -12 8 -8 45 -13 102 -13 l90 0 -50 -24 c-61 -28 -67 -47 -7 -24 53 21 125 69 87 58 -24 -7 -24 -7 -7 12 20 23 21 32 3 56 -14 18 -14 18 -21 -2z"/>
</g>
<g id="layer112" fill="#19b6ad" stroke="none">
<path d="M2490 3136 c0 -29 -3 -82 -6 -117 -4 -35 -4 -61 0 -58 4 4 9 20 10 35 2 16 4 33 5 37 0 5 6 5 11 2 6 -3 10 -24 10 -46 0 -28 4 -39 15 -39 8 0 15 1 15 3 0 1 -7 27 -15 57 -8 30 -15 83 -15 118 0 48 -3 62 -15 62 -11 0 -15 -13 -15 -54z"/>
<path d="M2612 3178 c-7 -7 -12 -44 -12 -97 0 -109 6 -131 34 -131 39 0 46 18 46 126 0 97 -1 102 -22 108 -31 8 -32 8 -46 -6z m48 -114 c0 -83 -2 -95 -16 -92 -14 2 -17 17 -16 91 0 48 1 89 1 92 1 3 8 5 16 5 12 0 15 -17 15 -96z"/>
<path d="M2750 3165 c-5 -14 -10 -69 -10 -121 0 -77 3 -94 15 -94 12 0 15 18 15 105 0 87 3 105 15 105 12 0 15 -18 15 -105 0 -87 3 -105 15 -105 12 0 15 16 14 88 -2 124 -8 146 -42 150 -21 3 -29 -2 -37 -23z"/>
<path d="M2723 1945 c-42 -12 -133 -59 -133 -70 0 -1 30 8 68 21 96 33 166 31 189 -5 16 -26 5 -64 -16 -56 -9 4 -29 9 -46 12 -23 4 -27 2 -15 -6 8 -6 25 -11 37 -11 53 0 35 -41 -59 -132 l-58 -56 26 -21 26 -20 32 24 c17 13 45 42 61 64 18 25 38 41 51 41 45 0 94 -60 130 -162 11 -33 11 -40 0 -44 -18 -7 -118 12 -159 29 -44 19 -87 37 -90 37 -2 0 -3 -16 -3 -35 0 -25 5 -37 18 -41 12 -3 18 -15 18 -36 0 -28 2 -30 28 -24 111 26 152 16 152 -38 0 -57 -96 -206 -122 -190 -15 9 -8 -63 7 -76 27 -22 91 -17 119 9 49 46 66 101 64 208 0 54 -3 82 -5 63 -5 -60 -25 -144 -40 -175 -33 -66 -81 -93 -111 -63 -9 9 1 25 44 70 62 65 99 137 91 178 -5 25 -2 28 34 39 58 17 79 43 79 94 0 52 -24 93 -81 139 -42 34 -113 78 -126 78 -12 0 30 -40 48 -45 30 -10 108 -112 115 -151 7 -38 1 -48 -32 -58 -19 -6 -22 -2 -29 41 -12 80 -76 189 -115 195 -12 2 -19 8 -18 13 2 6 7 9 11 7 5 -1 5 3 1 10 -4 7 -8 31 -9 54 -1 48 -17 72 -62 91 -39 16 -53 16 -120 -2z"/>
<path d="M2440 1871 c0 -23 46 -55 67 -47 12 5 13 3 5 -6 -8 -10 -6 -24 7 -53 l18 -40 5 54 c6 59 -3 75 -55 99 -38 16 -47 15 -47 -7z"/>
<path d="M2551 1685 c0 -11 4 -40 10 -65 7 -31 7 -46 0 -48 -6 -2 -11 -17 -11 -32 0 -25 -5 -31 -40 -41 l-40 -12 32 -15 c51 -22 63 -29 62 -39 -1 -4 -5 -24 -9 -43 l-7 -35 28 26 c16 14 44 36 62 48 l32 22 1 -33 c1 -26 10 -41 45 -72 l44 -39 -14 39 c-7 22 -17 58 -21 82 -6 37 -10 42 -27 36 -24 -7 -58 21 -58 50 0 12 9 27 20 34 19 12 18 14 -23 55 -24 23 -53 56 -65 72 -18 25 -21 27 -21 10z"/>
<path d="M2440 1280 c0 -28 30 -38 46 -15 16 22 17 20 -18 29 -24 5 -28 3 -28 -14z"/>
<path d="M2775 1227 c-18 -39 -113 -52 -229 -30 -17 3 -26 1 -23 -4 11 -17 156 -46 205 -40 l47 5 -52 -25 c-63 -30 -71 -50 -10 -26 53 21 125 69 87 58 -24 -7 -24 -7 -7 12 20 23 21 32 4 55 -12 15 -14 15 -22 -5z"/>
</g>
<g id="layer113" fill="#7f01fd" stroke="none">
<path d="M3349 2731 c-20 -27 -27 -30 -55 -25 -57 11 -121 -38 -144 -110 -16 -51 -8 -167 14 -201 57 -87 184 -83 233 7 27 50 25 170 -4 228 l-23 44 22 23 22 23 -21 21 -21 21 -23 -31z m-20 -112 c49 -53 33 -198 -25 -229 -58 -32 -109 39 -102 141 5 76 28 109 73 109 22 0 41 -8 54 -21z"/>
<path d="M1737 2704 c-4 -4 -7 -90 -7 -191 l0 -183 64 0 c54 0 67 4 89 25 46 46 44 118 -4 166 l-22 22 39 78 c21 43 36 81 33 83 -2 2 -19 1 -37 -2 -27 -6 -37 -17 -66 -77 l-35 -70 0 73 c-1 39 -5 72 -10 72 -5 0 -16 2 -23 5 -8 3 -17 2 -21 -1z m101 -216 c7 -7 12 -26 12 -43 0 -35 -15 -55 -42 -55 -15 0 -18 9 -18 55 0 46 3 55 18 55 10 0 23 -5 30 -12z"/>
<path d="M2025 2703 c-26 -7 -33 -19 -27 -49 3 -19 9 -23 21 -18 9 4 32 8 51 8 32 1 35 -1 38 -32 3 -29 -4 -40 -52 -87 -50 -47 -56 -58 -56 -93 0 -73 69 -127 133 -103 24 9 25 13 16 40 -10 27 -13 29 -34 19 -18 -8 -28 -8 -40 2 -28 23 -17 53 40 108 38 37 56 63 61 87 16 86 -56 142 -151 118z"/>
<path d="M2335 2696 c-16 -7 -38 -23 -48 -34 -42 -46 -59 -154 -37 -233 32 -115 189 -133 247 -27 26 48 25 181 -2 227 -38 65 -104 93 -160 67z m93 -77 c37 -38 42 -121 12 -186 -22 -50 -57 -64 -95 -39 -55 36 -61 193 -8 234 25 18 70 14 91 -9z"/>
<path d="M2580 2520 l0 -191 31 3 c29 3 33 9 75 108 l43 105 1 -108 0 -108 33 3 32 3 3 165 c3 198 1 212 -35 208 -23 -3 -32 -16 -68 -100 -22 -54 -45 -101 -49 -105 -4 -4 -6 39 -4 97 l3 105 -32 3 -33 3 0 -191z"/>
<path d="M3545 2701 c-11 -5 -29 -19 -40 -31 -18 -20 -20 -39 -23 -181 l-3 -159 35 0 36 0 -2 140 c-1 117 1 143 14 157 21 20 46 11 58 -22 6 -15 10 -83 10 -151 l0 -125 33 3 32 3 -3 154 c-2 85 -8 163 -13 173 -11 21 -67 48 -96 47 -10 0 -27 -4 -38 -8z"/>
<path d="M3756 2573 c-10 -215 8 -288 58 -238 14 15 16 41 14 193 l-3 177 -31 3 -32 3 -6 -138z"/>
<path d="M3890 2698 c0 -8 22 -80 49 -160 l49 -147 -46 -3 c-43 -3 -47 -5 -47 -28 0 -25 2 -25 88 -28 66 -2 87 0 87 10 0 7 -22 77 -50 155 l-49 142 52 3 c50 3 52 4 52 33 l0 30 -92 3 c-72 2 -93 0 -93 -10z"/>
<path d="M1260 2515 l0 -185 59 0 c49 0 65 5 87 24 24 20 28 32 32 89 4 63 3 68 -26 97 -21 20 -40 30 -61 30 l-31 0 0 65 0 65 -30 0 -30 0 0 -185z m102 -12 c25 -22 24 -77 -2 -103 -30 -30 -40 -17 -40 56 0 68 8 78 42 47z"/>
<path d="M1509 2668 c-2 -18 -2 -102 -1 -185 l4 -153 73 0 c65 0 74 2 80 20 10 31 -2 40 -51 40 l-44 0 0 40 0 40 45 0 c43 0 45 1 45 30 0 29 -2 30 -45 30 l-45 0 0 50 0 50 45 0 c25 0 46 3 46 8 9 56 9 57 -72 60 l-77 3 -3 -33z"/>
<path d="M2860 2688 c0 -7 17 -91 37 -185 l37 -173 32 0 c38 0 34 -11 73 175 16 77 32 152 36 168 7 25 5 27 -24 27 -24 0 -34 -6 -41 -25 -8 -20 -16 -25 -45 -25 -29 0 -36 4 -41 25 -5 19 -13 25 -35 25 -17 0 -29 -5 -29 -12z m125 -130 c-4 -18 -9 -42 -13 -53 -5 -18 -6 -18 -13 5 -4 14 -7 37 -8 53 -1 21 4 27 20 27 18 0 20 -4 14 -32z"/>
</g>
<g id="layer114" fill="#23a7b7" stroke="none">
<path d="M2756 3168 c-23 -32 -23 -218 -1 -218 12 0 15 18 15 105 0 87 3 105 15 105 12 0 15 -18 15 -105 0 -90 2 -105 16 -105 15 0 16 13 12 110 -2 60 -6 112 -9 114 -2 2 -14 7 -26 10 -16 5 -26 1 -37 -16z"/>
<path d="M2880 3070 l0 -120 34 0 c18 0 38 6 44 13 6 6 10 51 11 99 0 49 2 91 5 96 6 9 -11 39 -18 32 -3 -3 -7 -27 -11 -54 -6 -53 -11 -66 -26 -66 -5 0 -9 27 -9 60 0 47 -3 60 -15 60 -12 0 -15 -20 -15 -120z m60 -60 c0 -29 -4 -40 -15 -40 -11 0 -15 11 -15 40 0 29 4 40 15 40 11 0 15 -11 15 -40z"/>
<path d="M3043 3182 c-7 -4 -16 -23 -19 -41 -6 -26 -4 -33 7 -29 8 2 15 14 17 26 5 33 32 28 32 -6 0 -18 -11 -38 -30 -57 -32 -30 -39 -70 -20 -106 20 -36 80 -18 80 23 0 25 -26 23 -33 -3 -8 -28 -27 -14 -27 19 0 18 10 37 30 54 60 52 26 160 -37 120z"/>
<path d="M2722 1945 c-48 -14 -107 -43 -99 -51 1 -2 27 3 57 11 194 52 232 -42 79 -195 l-68 -68 24 -16 c13 -9 29 -16 34 -16 13 0 97 85 117 119 l16 27 44 -40 c40 -38 88 -123 96 -171 3 -18 -2 -20 -49 -17 -29 1 -70 9 -92 17 l-41 14 0 -34 c0 -28 -3 -32 -20 -28 -16 4 -20 0 -20 -22 0 -25 3 -27 28 -21 111 26 152 16 152 -38 0 -40 -40 -119 -83 -163 -51 -54 -21 -51 34 3 61 60 104 142 96 183 -5 26 -3 29 34 40 58 17 79 43 79 94 0 52 -24 93 -81 139 -42 34 -113 78 -126 78 -12 0 30 -40 48 -45 30 -10 108 -112 115 -151 7 -38 1 -48 -32 -58 -19 -6 -22 -2 -29 41 -13 88 -79 193 -121 193 -16 0 -24 5 -21 13 2 6 10 11 16 9 8 -1 9 2 5 10 -4 7 -8 31 -9 54 -1 48 -17 72 -62 91 -39 16 -53 16 -121 -2z"/>
<path d="M2480 1849 c0 -32 3 -34 30 -19 23 12 17 36 -11 43 -15 4 -19 0 -19 -24z"/>
<path d="M2517 1822 c-14 -16 -14 -21 3 -57 l18 -40 1 42 c1 23 4 48 7 57 8 21 -9 20 -29 -2z"/>
<path d="M2550 1683 c1 -23 17 -93 23 -100 3 -2 15 0 26 7 19 10 21 8 21 -24 0 -32 -3 -35 -50 -52 -56 -20 -62 -34 -26 -58 22 -14 24 -19 15 -48 -14 -52 -12 -53 34 -12 24 22 52 44 63 50 18 11 18 12 2 31 -26 28 -23 69 4 76 21 6 21 6 -6 28 -15 12 -45 44 -67 71 -26 34 -39 44 -39 31z"/>
<path d="M3042 1420 c-6 -132 -69 -249 -127 -238 -21 4 -25 1 -25 -18 0 -49 71 -38 112 18 41 55 49 88 45 189 -1 51 -4 74 -5 49z"/>
<path d="M2775 1228 c-13 -29 -91 -49 -170 -43 l-60 5 34 -15 c53 -25 151 -31 188 -11 42 21 46 31 31 61 l-13 25 -10 -22z"/>
<path d="M2786 1155 c-10 -8 -22 -12 -26 -10 -5 3 -10 -2 -14 -10 -8 -21 -1 -19 42 10 20 14 32 25 27 25 -6 0 -19 -7 -29 -15z"/>
</g>
<g id="layer115" fill="#9000fe" stroke="none">
<path d="M3346 2726 c-13 -20 -23 -24 -60 -23 -83 3 -136 -60 -144 -172 -3 -54 0 -77 16 -114 49 -110 186 -116 238 -9 26 53 24 166 -4 222 -21 43 -21 43 -1 68 14 19 16 28 8 38 -17 21 -35 17 -53 -10z m-19 -98 c35 -28 42 -133 13 -195 -31 -69 -96 -68 -126 2 -17 42 -18 131 -1 165 23 45 76 58 114 28z"/>
<path d="M3554 2703 c-12 -2 -32 -15 -45 -29 -23 -24 -24 -33 -27 -185 l-3 -159 35 0 36 0 -6 123 c-6 128 1 172 32 184 11 4 24 -2 36 -16 15 -20 18 -42 18 -157 l0 -134 30 0 30 0 0 149 c0 156 -7 193 -37 209 -24 13 -73 20 -99 15z"/>
<path d="M3918 2703 c-16 -2 -28 -8 -28 -12 0 -4 22 -73 49 -154 l50 -147 -39 0 c-40 0 -63 -20 -53 -47 6 -17 173 -18 173 -2 0 6 -22 76 -50 155 l-49 143 52 3 c50 3 52 4 52 33 l0 30 -65 1 c-36 1 -77 -1 -92 -3z"/>
<path d="M1517 2694 c-4 -4 -7 -88 -7 -186 l0 -178 75 0 c73 0 75 1 75 24 0 22 -5 25 -42 28 -43 3 -43 3 -46 46 l-3 42 46 0 c45 0 46 1 43 28 -3 24 -7 27 -45 30 l-43 3 0 49 0 49 43 3 c39 3 42 5 42 33 0 30 0 30 -65 33 -36 2 -69 0 -73 -4z"/>
<path d="M1730 2515 l0 -185 61 0 c54 0 64 3 90 29 41 42 41 107 0 153 l-29 33 39 72 c21 39 39 74 39 77 0 3 -15 6 -32 6 -31 0 -35 -5 -68 -73 l-35 -72 -3 73 -3 72 -29 0 -30 0 0 -185z m102 -22 c37 -44 28 -103 -17 -103 -24 0 -25 3 -25 60 0 64 13 77 42 43z"/>
<path d="M2007 2693 c-8 -8 -9 -47 -1 -55 3 -3 19 1 35 9 27 13 32 13 54 -1 38 -25 30 -51 -35 -121 -64 -69 -72 -93 -45 -145 19 -36 43 -50 89 -50 39 0 50 11 41 39 -4 14 -15 18 -43 17 -34 -1 -37 1 -40 30 -3 27 5 39 47 79 28 26 55 62 61 80 24 73 -19 125 -105 125 -28 0 -55 -3 -58 -7z"/>
<path d="M2312 2680 c-46 -28 -65 -79 -65 -170 0 -87 17 -131 66 -160 63 -39 148 -15 184 52 23 43 23 168 0 220 -19 45 -69 78 -117 78 -19 0 -50 -9 -68 -20z m113 -54 c28 -28 39 -79 32 -143 -10 -91 -77 -132 -127 -78 -23 24 -25 35 -25 112 0 80 1 86 28 109 35 30 61 30 92 0z"/>
<path d="M2580 2515 l0 -185 29 0 c27 0 31 6 72 107 l44 107 3 -107 3 -107 29 0 30 0 0 186 0 185 -27 -3 c-24 -3 -32 -15 -72 -108 l-46 -105 -3 108 -3 107 -29 0 -30 0 0 -185z"/>
<path d="M2861 2683 c0 -10 17 -92 38 -183 l37 -165 31 -3 c35 -4 29 -21 73 188 17 80 33 153 36 163 4 14 -1 17 -25 17 -24 0 -32 -5 -37 -26 -6 -22 -11 -25 -48 -22 -34 2 -42 7 -44 26 -3 17 -10 22 -33 22 -21 0 -29 -5 -28 -17z m124 -130 c-12 -65 -22 -72 -32 -22 -11 52 -9 59 19 59 18 0 19 -4 13 -37z"/>
<path d="M3760 2515 l0 -185 30 0 30 0 0 163 c0 89 3 172 6 185 6 20 3 22 -30 22 l-36 0 0 -185z"/>
</g>
<g id="layer116" fill="#2da0c1" stroke="none">
<path d="M2725 1943 c-56 -15 -110 -41 -102 -49 2 -2 26 3 53 11 51 15 104 19 139 9 68 -18 44 -103 -55 -204 l-68 -69 24 -15 c13 -9 26 -16 29 -16 16 0 66 47 99 93 l38 53 48 -46 c34 -32 55 -64 73 -110 14 -35 23 -68 20 -73 -7 -12 -89 -1 -143 18 l-40 14 0 -34 c0 -28 -3 -32 -20 -28 -16 4 -20 0 -20 -22 0 -22 3 -26 18 -20 33 15 131 18 147 5 35 -29 2 -130 -66 -208 -59 -67 -14 -46 50 23 52 56 85 127 78 165 -5 25 -2 28 34 39 58 17 79 43 79 94 0 52 -24 93 -81 139 -49 40 -119 81 -126 75 -2 -3 12 -15 32 -27 49 -31 123 -124 131 -166 7 -38 1 -48 -32 -58 -19 -6 -22 -2 -29 41 -13 87 -85 193 -132 193 -9 0 -13 6 -10 14 25 65 15 124 -26 150 -36 24 -77 27 -142 9z"/>
<path d="M3039 1400 c-8 -76 -28 -137 -60 -185 -26 -37 -48 -47 -73 -33 -13 7 -16 4 -16 -15 0 -32 23 -40 64 -23 68 28 98 100 94 227 l-3 94 -6 -65z"/>
<path d="M2775 1229 c-15 -33 -79 -51 -160 -45 -66 5 -68 4 -40 -9 46 -21 150 -30 185 -15 45 18 54 34 38 64 -13 25 -14 25 -23 5z"/>
</g>
<g id="layer117" fill="#1ac5bd" stroke="none">
<path d="M2759 3174 c-9 -12 -15 -50 -17 -121 -3 -89 -2 -103 12 -103 14 0 16 16 16 105 0 87 3 105 15 105 12 0 15 -18 15 -105 0 -63 4 -105 10 -105 6 0 10 45 10 115 0 63 -4 115 -9 115 -5 0 -16 2 -24 5 -7 3 -20 -2 -28 -11z"/>
<path d="M2663 3065 c0 -57 4 -102 9 -99 11 7 10 191 -1 198 -5 3 -8 -41 -8 -99z"/>
<path d="M2725 1943 c-56 -15 -110 -41 -102 -49 2 -2 26 3 53 11 88 27 166 16 179 -26 11 -35 -40 -123 -107 -183 l-59 -53 25 -17 c14 -9 28 -16 31 -16 16 0 66 47 99 93 l38 53 49 -45 c45 -41 65 -76 94 -170 7 -24 7 -24 -47 -18 -30 4 -74 13 -96 21 l-42 15 0 -34 c0 -28 -3 -32 -20 -28 -16 4 -20 0 -20 -22 0 -23 3 -25 23 -18 12 4 49 8 82 8 54 0 61 -2 72 -25 17 -35 -6 -100 -56 -160 -20 -25 -41 -51 -45 -58 -17 -28 30 6 73 53 52 56 85 127 78 165 -5 25 -2 28 33 39 83 25 104 104 49 179 -29 39 -91 89 -148 120 -38 20 -36 7 3 -17 82 -51 155 -169 129 -209 -5 -10 -19 -18 -30 -20 -16 -2 -22 6 -32 55 -8 32 -22 74 -32 94 -20 41 -72 89 -96 89 -9 0 -13 6 -10 14 25 65 15 124 -26 150 -36 24 -77 27 -142 9z"/>
<path d="M2480 1850 c0 -34 2 -35 33 -19 21 11 21 11 6 -7 -16 -18 -16 -21 1 -52 l18 -33 3 45 c4 47 -10 76 -43 89 -15 5 -18 1 -18 -23z"/>
<path d="M2554 1673 c3 -18 9 -46 12 -63 6 -34 7 -34 35 -20 17 10 19 7 19 -24 0 -32 -3 -35 -50 -52 -55 -20 -63 -38 -25 -56 28 -13 28 -10 16 -61 l-9 -38 42 38 c23 21 51 43 62 49 18 11 18 12 2 31 -26 28 -23 69 4 76 21 6 21 6 -6 28 -15 12 -46 45 -68 73 -40 50 -40 50 -34 19z"/>
<path d="M3038 1400 c-14 -144 -76 -247 -130 -218 -15 7 -18 4 -18 -16 0 -31 23 -39 65 -22 65 28 97 110 93 239 l-3 82 -7 -65z"/>
<path d="M2705 1394 c-19 -14 -18 -16 18 -52 l37 -37 -16 50 c-9 28 -17 51 -18 52 -1 1 -10 -5 -21 -13z"/>
<path d="M2480 1279 c0 -5 5 -7 10 -4 6 3 10 8 10 11 0 2 -4 4 -10 4 -5 0 -10 -5 -10 -11z"/>
<path d="M2775 1227 c-15 -33 -68 -48 -155 -43 -69 5 -73 4 -45 -9 70 -32 195 -27 225 9 9 11 8 20 -2 40 l-13 26 -10 -23z"/>
<path d="M2523 1193 c4 -3 10 -3 14 0 3 4 0 7 -7 7 -7 0 -10 -3 -7 -7z"/>
<path d="M2744 1128 c-4 -7 -3 -8 4 -4 12 7 16 16 8 16 -3 0 -8 -5 -12 -12z"/>
</g>
<g id="layer118" fill="#1fbfc4" stroke="none">
<path d="M3044 3182 c-16 -11 -27 -75 -11 -70 6 3 13 14 15 26 6 37 32 26 32 -13 0 -26 -6 -39 -24 -51 -49 -31 -42 -124 9 -124 18 0 28 7 35 26 13 33 13 34 -5 34 -8 0 -15 -9 -15 -20 0 -11 -7 -20 -15 -20 -27 0 -19 65 11 87 34 25 46 99 19 120 -21 15 -35 16 -51 5z"/>
<path d="M2890 3065 l0 -115 30 0 c37 0 54 29 46 79 -3 20 -2 60 3 89 5 31 4 55 -1 58 -15 9 -21 -3 -20 -38 1 -34 -13 -68 -28 -68 -6 0 -10 25 -10 55 0 30 -4 55 -10 55 -6 0 -10 -45 -10 -115z m55 -35 c9 -27 -3 -60 -21 -60 -10 0 -14 12 -14 40 0 43 23 57 35 20z"/>
<path d="M2722 1943 c-34 -9 -60 -19 -57 -22 3 -3 34 -4 69 -3 120 5 149 -29 100 -119 -16 -28 -54 -75 -86 -103 l-57 -52 30 -18 31 -18 35 33 c120 116 155 244 80 293 -36 24 -76 27 -145 9z"/>
<path d="M2950 1773 c14 -9 48 -40 77 -69 78 -78 96 -163 36 -172 -16 -2 -22 6 -32 55 -16 70 -40 120 -75 152 -14 14 -26 23 -27 20 0 -2 -2 -11 -4 -21 -2 -9 10 -29 26 -44 25 -24 49 -74 74 -153 l7 -24 -65 7 c-63 7 -64 7 -63 -16 1 -22 -2 -23 -51 -20 -44 2 -51 0 -48 -15 2 -10 4 -18 4 -19 1 0 22 4 48 11 135 34 168 -60 64 -185 -20 -25 -41 -51 -45 -58 -17 -28 30 6 73 53 52 56 85 127 78 165 -5 25 -2 28 33 39 83 25 104 104 49 179 -29 39 -91 89 -148 119 -33 18 -41 15 -11 -4z"/>
<path d="M2553 1675 c3 -11 8 -37 12 -57 5 -35 7 -37 30 -26 14 6 25 14 25 17 -1 3 -17 24 -37 46 -23 27 -34 33 -30 20z"/>
<path d="M2610 1526 c-21 -9 -24 -17 -22 -45 2 -19 -2 -37 -8 -41 -6 -4 -15 -24 -20 -44 l-8 -37 47 44 c26 24 53 46 61 49 13 4 13 8 -2 24 -9 10 -18 28 -20 40 -3 18 -6 19 -28 10z"/>
<path d="M3038 1400 c-11 -119 -60 -219 -108 -223 -13 -1 -16 -5 -10 -11 6 -6 6 -14 -1 -22 -9 -11 -4 -11 21 -4 70 20 102 79 108 200 5 106 -2 149 -10 60z"/>
<path d="M2772 1220 c-15 -25 -85 -43 -140 -37 -58 6 -51 -15 9 -26 57 -10 122 -1 150 22 20 16 21 20 8 39 -15 20 -15 20 -27 2z"/>
</g>
<g id="layer119" fill="#25b7c9" stroke="none">
<path d="M3043 3178 c-18 -23 -26 -71 -11 -66 7 3 14 14 16 26 2 12 10 22 18 22 24 0 17 -63 -10 -89 -30 -28 -39 -62 -26 -95 13 -36 57 -36 70 0 13 33 13 34 -5 34 -8 0 -15 -9 -15 -20 0 -11 -7 -20 -15 -20 -27 0 -19 65 11 87 34 25 46 99 19 120 -23 16 -40 17 -52 1z"/>
<path d="M3160 3071 l0 -121 35 0 c19 0 35 5 35 10 0 6 -9 10 -20 10 -17 0 -20 7 -20 40 0 29 4 40 15 40 8 0 15 5 15 10 0 6 -7 10 -15 10 -11 0 -15 12 -15 45 0 39 3 45 21 45 33 0 16 25 -19 28 l-32 3 0 -120z"/>
<path d="M3390 3070 l0 -120 30 0 c34 0 40 15 10 23 -16 4 -20 14 -20 46 0 30 4 41 15 41 8 0 15 4 15 9 0 5 -7 11 -15 15 -11 4 -15 20 -15 56 0 27 -4 50 -10 50 -6 0 -10 -47 -10 -120z"/>
<path d="M2765 1954 c-50 -13 -86 -26 -81 -32 4 -3 30 -5 59 -3 67 3 105 -11 113 -43 9 -36 -39 -118 -107 -180 l-57 -53 30 -18 30 -17 35 33 c120 116 155 244 80 293 -26 18 -73 27 -102 20z"/>
<path d="M3014 1717 c90 -88 113 -175 49 -185 -16 -2 -22 6 -32 55 -8 32 -21 74 -31 93 -18 35 -69 90 -71 77 -5 -24 -1 -33 23 -59 24 -26 49 -80 73 -157 l7 -24 -65 7 c-62 6 -64 6 -63 -16 1 -21 -3 -23 -51 -20 -44 2 -51 0 -48 -15 2 -10 4 -18 4 -19 1 0 22 4 48 11 135 34 168 -60 64 -185 -53 -64 -59 -77 -24 -52 75 54 140 159 130 212 -5 25 -2 28 33 39 82 24 104 104 50 178 -29 40 -106 102 -142 116 -10 3 11 -22 46 -56z"/>
<path d="M2555 1673 c2 -10 7 -35 10 -55 5 -35 7 -37 30 -26 14 6 25 14 25 17 -1 3 -16 23 -35 44 -21 25 -32 32 -30 20z"/>
<path d="M3038 1400 c-8 -87 -35 -164 -70 -200 -15 -17 -32 -30 -36 -30 -5 0 -9 -7 -9 -15 0 -19 27 -19 55 1 41 29 65 92 70 184 5 106 -2 149 -10 60z"/>
<path d="M2772 1220 c-15 -24 -83 -43 -139 -38 -43 3 -59 -6 -25 -16 76 -21 166 -13 192 19 9 11 9 18 -2 34 -14 19 -14 19 -26 1z"/>
</g>
<g id="layer120" fill="#b000fe" stroke="none">
<path d="M3348 2726 c-14 -20 -26 -24 -63 -24 -53 1 -89 -21 -119 -72 -27 -46 -29 -181 -3 -228 22 -39 71 -72 110 -72 39 0 93 27 112 56 39 60 38 200 -2 261 -13 20 -13 25 6 51 15 22 17 32 9 40 -18 18 -31 14 -50 -12z m-36 -87 c61 -33 63 -205 3 -245 -35 -23 -66 -14 -93 26 -21 31 -23 44 -20 109 3 65 6 76 31 97 31 26 48 29 79 13z"/>
<path d="M3554 2699 c-63 -18 -69 -34 -72 -210 l-4 -159 35 0 34 0 -1 140 c-1 116 2 142 15 156 21 21 55 11 63 -19 3 -12 6 -79 6 -149 l0 -128 30 0 30 0 0 150 c0 88 -5 159 -11 173 -18 40 -74 61 -125 46z"/>
<path d="M2311 2674 c-39 -33 -49 -51 -61 -114 -33 -174 111 -297 218 -187 71 73 57 258 -23 307 -46 28 -97 26 -134 -6z m116 -48 c27 -23 28 -29 28 -109 0 -77 -3 -88 -24 -111 -38 -41 -91 -34 -116 15 -18 33 -20 147 -4 183 22 48 74 58 116 22z"/>
<path d="M2582 2518 l3 -183 26 -3 c23 -3 28 4 68 103 24 58 48 108 54 112 6 4 7 -32 3 -106 l-8 -111 31 0 31 0 0 186 0 185 -27 -3 c-23 -3 -31 -15 -68 -100 -22 -54 -44 -100 -48 -104 -4 -4 -7 41 -7 99 l0 107 -30 0 -30 0 2 -182z"/>
<path d="M2860 2693 c0 -5 17 -87 39 -183 l38 -175 31 -3 c30 -3 31 -2 42 55 6 32 23 107 36 167 31 138 31 146 -1 146 -18 0 -26 -7 -31 -25 -5 -22 -12 -25 -50 -25 -40 0 -44 2 -44 25 0 21 -5 25 -30 25 -16 0 -30 -3 -30 -7z m130 -120 c0 -10 -5 -36 -12 -58 l-11 -40 -13 50 c-18 66 -18 65 11 65 17 0 25 -5 25 -17z"/>
<path d="M3760 2516 l0 -186 30 0 30 0 2 170 c0 94 1 176 2 183 1 7 -13 13 -31 15 l-33 3 0 -185z"/>
<path d="M3890 2691 c0 -5 22 -74 49 -152 28 -79 48 -147 45 -151 -3 -4 -23 -8 -45 -8 -35 0 -39 -3 -39 -25 0 -25 1 -25 85 -25 64 0 85 3 85 13 0 8 -20 67 -44 133 -24 66 -46 131 -48 145 -3 23 0 24 50 27 48 3 52 5 52 28 0 24 -1 24 -95 24 -52 0 -95 -4 -95 -9z"/>
</g>
<g id="layer121" fill="#1bd4ce" stroke="none">
<path d="M3043 3178 c-18 -23 -26 -71 -11 -66 7 3 14 14 16 26 2 12 10 22 18 22 24 0 17 -63 -10 -89 -30 -28 -39 -62 -26 -96 8 -21 16 -26 38 -23 21 2 28 9 30 31 2 15 -1 27 -7 27 -6 0 -11 -9 -11 -20 0 -11 -7 -20 -15 -20 -26 0 -18 60 12 92 44 46 36 127 -13 128 -6 0 -16 -6 -21 -12z"/>
<path d="M2890 3065 l0 -115 24 0 c39 0 59 27 52 69 -9 53 -9 52 2 104 6 29 6 50 0 53 -15 9 -21 -3 -20 -38 2 -45 -7 -68 -24 -68 -10 0 -14 14 -14 55 0 30 -4 55 -10 55 -6 0 -10 -45 -10 -115z m55 -55 c0 -25 -5 -36 -17 -38 -15 -3 -18 4 -18 38 0 34 3 41 18 38 12 -2 17 -13 17 -38z"/>
<path d="M2705 1935 c-35 -16 -31 -17 52 -15 50 1 65 -2 82 -19 12 -12 21 -28 21 -37 0 -36 -47 -109 -106 -164 l-62 -57 30 -18 c30 -17 30 -17 65 16 96 93 140 197 109 258 -9 17 -25 35 -35 41 -28 14 -120 12 -156 -5z"/>
<path d="M2510 1852 c0 -7 5 -12 10 -12 7 0 7 -7 0 -20 -7 -13 -7 -26 -2 -36 8 -14 11 -11 20 14 9 26 7 33 -9 48 -11 10 -19 12 -19 6z"/>
<path d="M3018 1713 c54 -54 72 -80 78 -109 8 -42 -4 -68 -32 -72 -16 -2 -22 9 -38 68 -17 69 -70 156 -91 152 -17 -3 -11 -25 13 -49 25 -25 65 -108 76 -157 l7 -29 -64 7 c-62 6 -64 6 -63 -16 1 -21 -3 -23 -51 -20 -50 2 -55 -1 -44 -35 1 -1 13 2 29 8 15 6 47 11 71 11 109 0 103 -83 -16 -232 l-28 -34 33 23 c75 52 143 171 127 220 -4 14 3 20 34 30 79 23 101 90 56 166 -24 42 -57 71 -129 115 -32 19 -27 12 32 -47z"/>
<path d="M2561 1648 c4 -24 8 -49 9 -55 0 -10 6 -10 25 -1 14 6 25 14 25 17 -1 3 -16 23 -34 44 l-33 37 8 -42z"/>
<path d="M2610 1526 c-21 -9 -25 -17 -22 -48 2 -21 -1 -38 -6 -38 -5 0 -14 -18 -20 -40 l-10 -41 47 44 c26 24 53 46 61 49 13 5 12 8 -2 19 -9 8 -18 26 -20 40 -3 23 -5 25 -28 15z"/>
<path d="M3041 1420 c-2 -102 -55 -230 -99 -244 -23 -8 -25 -36 -3 -36 27 0 60 29 83 73 21 42 37 186 25 232 -2 11 -5 0 -6 -25z"/>
<path d="M2701 1387 c-8 -11 -3 -20 21 -43 22 -21 29 -24 25 -11 -4 11 -10 30 -13 43 -7 27 -16 30 -33 11z"/>
<path d="M2776 1225 c-10 -26 -74 -47 -133 -43 -54 3 -73 -8 -28 -17 14 -3 36 -7 50 -10 36 -8 98 4 125 25 21 16 22 19 8 39 -13 19 -16 20 -22 6z"/>
</g>
<g id="layer122" fill="#24c8d8" stroke="none">
<path d="M3047 3179 c-18 -11 -24 -59 -7 -59 6 0 10 9 10 20 0 11 7 20 15 20 24 0 19 -63 -6 -86 -28 -25 -41 -59 -33 -89 7 -29 39 -42 59 -25 17 14 20 50 5 50 -5 0 -10 -9 -10 -20 0 -11 -7 -20 -15 -20 -24 0 -20 72 5 88 60 37 38 154 -23 121z"/>
<path d="M3280 3070 c0 -73 4 -120 10 -120 6 0 10 42 10 105 0 98 1 105 20 105 11 0 20 7 20 15 0 10 -10 15 -30 15 l-30 0 0 -120z"/>
<path d="M3390 3070 l0 -120 30 0 c17 0 30 5 30 10 0 6 -9 10 -20 10 -17 0 -20 7 -20 45 0 33 4 45 15 45 8 0 15 4 15 9 0 5 -7 11 -15 15 -11 4 -15 20 -15 56 0 27 -4 50 -10 50 -6 0 -10 -47 -10 -120z"/>
<path d="M3160 3065 l0 -115 30 0 c34 0 40 15 10 23 -15 4 -20 14 -20 41 0 29 4 36 20 36 11 0 20 4 20 9 0 5 -9 11 -20 14 -15 4 -20 14 -20 42 0 28 5 38 20 42 30 8 24 23 -10 23 l-30 0 0 -115z"/>
<path d="M2750 1935 c0 -10 11 -15 35 -15 44 0 79 -32 72 -66 -3 -16 1 -28 12 -34 13 -8 12 -9 -6 -10 -14 0 -28 -10 -37 -27 -8 -16 -28 -41 -45 -57 -24 -23 -31 -38 -31 -68 0 -21 4 -38 9 -38 14 0 86 83 113 131 47 82 43 160 -11 189 -31 16 -111 13 -111 -5z"/>
<path d="M3033 1700 c76 -84 90 -159 31 -168 -16 -2 -22 9 -37 64 -20 76 -60 150 -65 122 -2 -10 10 -46 26 -80 17 -35 33 -75 36 -90 6 -25 3 -28 -19 -28 -20 0 -25 -5 -25 -25 0 -14 -5 -25 -12 -25 -6 0 -4 -8 6 -19 31 -34 7 -98 -76 -206 l-23 -30 33 23 c69 50 133 163 117 211 -4 14 3 20 34 30 48 14 81 53 81 94 0 58 -61 135 -140 177 -16 9 -5 -8 33 -50z"/>
<path d="M3038 1395 c-7 -75 -40 -176 -63 -195 -18 -15 -20 -53 -2 -48 19 7 56 66 67 110 6 21 10 75 8 121 l-3 82 -7 -70z"/>
<path d="M2707 1388 c-17 -13 -16 -15 13 -43 32 -31 35 -28 17 23 -11 29 -14 31 -30 20z"/>
<path d="M2763 1213 c-12 -13 -40 -26 -62 -29 -23 -4 -41 -10 -41 -14 0 -11 25 -19 46 -15 11 2 28 4 39 4 11 1 31 10 44 20 21 16 22 20 10 37 -14 19 -15 19 -36 -3z"/>
</g>
<g id="layer123" fill="#d400ff" stroke="none">
<path d="M3352 2725 c-16 -20 -29 -25 -61 -25 -84 0 -135 -56 -145 -157 -10 -96 21 -165 88 -200 55 -29 135 7 162 73 21 51 18 162 -6 209 -25 49 -25 57 0 80 15 14 17 21 9 32 -16 19 -25 16 -47 -12z m-25 -99 c25 -21 28 -32 31 -97 3 -65 1 -78 -20 -109 -13 -19 -32 -36 -42 -38 -61 -12 -98 37 -99 132 -1 118 61 171 130 112z"/>
<path d="M3523 2682 c-34 -25 -43 -72 -43 -219 l0 -133 30 0 30 0 0 136 c0 74 5 144 10 155 15 26 56 25 72 -3 8 -15 12 -68 13 -153 l0 -130 28 -3 28 -3 -3 161 -3 162 -28 24 c-34 29 -100 32 -134 6z"/>
<path d="M3760 2515 l0 -185 30 0 30 0 0 185 0 185 -30 0 -30 0 0 -185z"/>
<path d="M3890 2698 c0 -2 23 -71 50 -153 28 -82 50 -153 50 -157 0 -4 -20 -8 -45 -8 -41 0 -45 -2 -45 -25 0 -25 1 -25 85 -25 47 0 85 3 85 8 0 4 -23 71 -50 150 -28 79 -50 147 -50 153 0 5 25 9 56 9 52 0 55 1 52 23 -3 21 -8 22 -95 25 -51 1 -93 1 -93 0z"/>
</g>
<g id="layer124" fill="#1ce2de" stroke="none">
<path d="M3047 3179 c-18 -11 -24 -59 -7 -59 6 0 10 9 10 20 0 11 7 20 15 20 24 0 19 -63 -6 -86 -28 -25 -41 -59 -33 -89 7 -29 39 -42 59 -25 17 14 20 50 5 50 -5 0 -10 -9 -10 -20 0 -11 -7 -20 -15 -20 -24 0 -20 72 5 88 59 37 36 154 -23 121z"/>
<path d="M3160 3065 l0 -115 30 0 c17 0 30 5 30 10 0 6 -9 10 -20 10 -17 0 -20 7 -20 40 0 33 3 40 20 40 11 0 20 5 20 10 0 6 -9 10 -20 10 -17 0 -20 7 -20 45 0 38 3 45 20 45 11 0 20 5 20 10 0 6 -13 10 -30 10 l-30 0 0 -115z"/>
<path d="M2750 1935 c0 -10 10 -15 33 -15 48 0 79 -25 75 -61 -2 -18 3 -33 12 -39 12 -8 11 -10 -7 -10 -13 0 -23 -4 -23 -9 0 -5 -20 -31 -45 -59 -36 -40 -45 -57 -45 -86 0 -20 4 -36 9 -36 15 0 100 102 121 146 11 23 20 61 20 88 0 65 -33 96 -101 96 -37 0 -49 -4 -49 -15z"/>
<path d="M3032 1702 c78 -85 90 -151 31 -173 -19 -7 -22 -2 -31 46 -13 64 -64 169 -70 143 -2 -10 10 -46 27 -80 17 -35 33 -75 37 -90 5 -25 3 -28 -20 -28 -21 0 -26 -5 -26 -25 0 -14 -5 -25 -12 -25 -6 0 -4 -8 7 -20 30 -34 8 -93 -77 -205 l-23 -30 35 26 c60 45 103 114 108 174 4 51 5 53 43 64 47 14 79 53 79 96 0 54 -65 134 -145 177 -11 6 6 -17 37 -50z"/>
<path d="M2565 1635 c8 -48 6 -46 33 -38 29 7 28 14 -9 49 l-32 29 8 -40z"/>
<path d="M2613 1527 l-23 -12 21 -13 c25 -16 32 -11 27 16 -3 18 -6 19 -25 9z"/>
<path d="M3038 1390 c-9 -84 -22 -129 -53 -174 -14 -20 -25 -43 -25 -51 0 -49 62 33 80 105 6 25 10 77 8 115 l-3 70 -7 -65z"/>
<path d="M2565 1413 c-8 -34 1 -40 25 -18 25 23 25 31 1 38 -14 3 -21 -2 -26 -20z"/>
<path d="M2708 1388 c-15 -12 -14 -15 13 -39 32 -29 33 -29 16 19 -11 28 -14 31 -29 20z"/>
<path d="M2763 1213 c-12 -13 -40 -26 -62 -29 -41 -7 -52 -18 -28 -27 29 -11 138 22 137 41 0 4 -6 14 -13 22 -10 13 -15 12 -34 -7z"/>
</g>
<g id="layer125" fill="#20e2ea" stroke="none">
<path d="M3180 3169 c0 -5 -4 -8 -8 -5 -5 3 -9 -2 -9 -10 0 -10 4 -11 11 -4 5 5 18 10 28 10 10 0 18 5 18 10 0 6 -9 10 -20 10 -11 0 -20 -5 -20 -11z"/>
<path d="M3390 3065 l0 -115 25 0 c14 0 25 5 25 10 0 6 -7 10 -15 10 -23 0 -21 86 3 99 16 10 16 10 0 11 -15 0 -18 9 -18 50 0 28 -4 50 -10 50 -6 0 -10 -45 -10 -115z"/>
<path d="M3163 3115 c0 -8 4 -12 9 -9 5 3 6 10 3 15 -9 13 -12 11 -12 -6z"/>
<path d="M3163 3076 c0 -8 4 -13 9 -10 4 3 8 0 8 -5 0 -6 9 -11 20 -11 11 0 20 5 20 10 0 6 -8 10 -18 10 -10 0 -23 5 -28 10 -7 7 -11 6 -11 -4z"/>
<path d="M3163 3035 c0 -8 4 -12 9 -9 5 3 6 10 3 15 -9 13 -12 11 -12 -6z"/>
<path d="M3163 2995 c0 -8 4 -12 9 -9 5 3 6 10 3 15 -9 13 -12 11 -12 -6z"/>
<path d="M3166 2958 c7 -12 54 -10 54 2 0 6 -13 9 -29 8 -16 -1 -27 -6 -25 -10z"/>
<path d="M2803 1938 c1 -7 15 -21 30 -31 22 -13 28 -24 25 -45 -2 -18 4 -33 17 -44 20 -16 19 -16 -5 -11 -20 3 -29 -2 -45 -29 -17 -29 -30 -122 -15 -113 3 2 23 29 45 60 32 47 40 68 43 115 4 54 2 61 -23 84 -29 27 -77 36 -72 14z"/>
<path d="M3036 1708 c4 -7 19 -28 32 -46 36 -47 37 -111 2 -129 -24 -12 -25 -11 -33 20 -19 81 -29 110 -36 98 -4 -6 3 -43 16 -82 14 -39 22 -78 19 -85 -7 -17 -3 -17 38 0 69 29 85 95 40 162 -26 39 -62 73 -77 74 -5 0 -5 -6 -1 -12z"/>
<path d="M2582 1625 c-1 -16 3 -25 13 -25 22 0 26 16 7 33 -16 15 -18 14 -20 -8z"/>
<path d="M2611 1521 c-11 -7 -9 -11 8 -20 18 -10 21 -9 21 9 0 22 -7 25 -29 11z"/>
<path d="M2973 1452 c25 -27 21 -53 -18 -127 -41 -76 -27 -82 24 -11 26 37 36 61 39 102 l4 54 -32 0 c-31 0 -32 -1 -17 -18z"/>
<path d="M3042 1410 c-1 -25 -9 -70 -18 -100 -30 -108 -33 -121 -21 -117 24 7 48 107 44 186 -1 42 -4 56 -5 31z"/>
<path d="M2580 1415 c0 -16 16 -20 24 -6 3 5 -1 11 -9 15 -9 3 -15 0 -15 -9z"/>
<path d="M2726 1357 c3 -10 9 -15 12 -12 3 3 0 11 -7 18 -10 9 -11 8 -5 -6z"/>
<path d="M2755 1206 c-55 -40 -36 -62 26 -31 25 13 28 19 19 35 -6 11 -12 20 -13 19 -1 0 -15 -11 -32 -23z"/>
</g>
<g id="layer126" fill="#1df1ef" stroke="none">
<path d="M3205 3170 c-3 -5 -1 -10 4 -10 6 0 11 5 11 10 0 6 -2 10 -4 10 -3 0 -8 -4 -11 -10z"/>
<path d="M3280 3065 c0 -70 4 -115 10 -115 6 0 10 42 10 105 0 98 1 105 20 105 11 0 20 5 20 10 0 6 -13 10 -30 10 l-30 0 0 -115z"/>
<path d="M3390 3065 l0 -115 25 0 c14 0 25 5 25 10 0 6 -7 10 -15 10 -23 0 -21 97 3 103 16 4 16 5 0 6 -15 1 -18 10 -18 51 0 28 -4 50 -10 50 -6 0 -10 -45 -10 -115z"/>
<path d="M3205 3060 c3 -5 8 -10 11 -10 2 0 4 5 4 10 0 6 -5 10 -11 10 -5 0 -7 -4 -4 -10z"/>
<path d="M3200 2960 c0 -5 5 -10 10 -10 6 0 10 5 10 10 0 6 -4 10 -10 10 -5 0 -10 -4 -10 -10z"/>
<path d="M2820 1937 c0 -8 9 -22 20 -32 11 -10 20 -29 20 -43 0 -14 7 -33 15 -42 14 -16 14 -17 -8 -13 -29 6 -47 -29 -47 -90 l0 -42 37 55 c59 88 57 181 -4 209 -31 14 -33 14 -33 -2z"/>
<path d="M3050 1699 c0 -6 10 -25 22 -41 31 -44 31 -109 1 -123 -14 -6 -23 -19 -23 -32 0 -27 1 -27 35 -11 30 13 55 55 55 91 0 12 -12 41 -26 63 -28 43 -64 73 -64 53z"/>
<path d="M3001 1638 c0 -13 9 -45 20 -73 16 -42 18 -44 13 -15 -14 85 -35 141 -33 88z"/>
<path d="M2590 1621 c0 -11 4 -21 9 -21 18 0 21 18 6 30 -13 10 -15 9 -15 -9z"/>
<path d="M2612 1523 c-15 -6 -6 -23 14 -23 8 0 14 7 14 15 0 15 -6 17 -28 8z"/>
<path d="M2989 1468 c0 -2 -2 -23 -3 -48 -1 -25 -11 -64 -24 -88 -12 -23 -22 -48 -22 -55 1 -16 35 28 60 75 24 45 27 118 5 118 -8 0 -15 -1 -16 -2z"/>
<path d="M3037 1376 c-3 -36 -13 -81 -22 -101 -8 -21 -15 -49 -15 -64 1 -24 3 -23 22 14 16 29 23 64 26 128 5 101 -2 117 -11 23z"/>
<path d="M2590 1409 c0 -5 5 -7 10 -4 6 3 10 8 10 11 0 2 -4 4 -10 4 -5 0 -10 -5 -10 -11z"/>
<path d="M2763 1206 c-20 -19 -31 -46 -18 -46 19 0 55 27 55 41 0 27 -13 29 -37 5z"/>
</g>


</svg>